<svg version="1.1" id="Layer_1" xmlns="http://www.w3.org/2000/svg" xmlns:xlink="http://www.w3.org/1999/xlink" x="0px" y="0px"
	 width="100%" viewBox="0 0 800 528" enable-background="new 0 0 800 528" xml:space="preserve">
<path fill="#000000" opacity="1.000000" stroke="none" 
	d="
M801.000000,289.531342 
	C797.151367,294.694122 792.836121,298.840027 787.007629,300.949554 
	C784.296997,301.930664 783.877319,304.160095 783.393555,306.435516 
	C774.998718,345.921967 753.412415,376.429321 719.965088,398.555725 
	C701.909424,410.500122 681.746948,416.825104 660.252319,419.504852 
	C635.817078,422.551147 611.825867,420.756836 588.129089,414.432861 
	C584.581360,413.486115 583.315674,415.601379 581.723572,417.716461 
	C562.913208,442.706268 539.772644,462.744232 512.483398,477.961639 
	C487.300903,492.004272 460.311005,500.748810 431.608948,503.209930 
	C368.993286,508.578979 314.558197,489.211060 267.725800,447.668854 
	C257.465546,438.567627 248.323257,428.431213 239.862473,417.683960 
	C237.789932,415.051270 235.851227,414.474365 232.638321,415.228180 
	C211.795883,420.118286 190.695633,422.741364 169.304138,420.256683 
	C121.384720,414.690674 83.868446,392.165039 58.324020,350.851532 
	C47.794083,333.821259 41.130547,315.264008 38.537922,295.324402 
	C38.183777,292.600647 37.068233,290.621460 34.287449,289.172974 
	C22.214836,282.884491 16.777119,272.398865 17.821392,259.151703 
	C18.809429,246.617889 25.077536,237.071106 37.360115,232.628265 
	C41.159187,231.254059 41.648197,228.305191 42.440498,225.337799 
	C49.787952,197.819641 63.304832,173.971481 84.234093,154.454651 
	C104.033661,135.991272 127.487144,125.742783 154.279800,122.558250 
	C176.307404,119.940086 197.720840,122.612679 218.726578,129.257431 
	C221.802002,130.230270 223.316544,129.710754 225.130676,126.912712 
	C249.073303,89.984245 280.584686,61.491535 320.527771,42.745770 
	C342.970215,32.213264 366.545837,25.385361 391.389923,23.602663 
	C475.558838,17.563089 541.573425,50.341366 591.502075,117.388344 
	C594.578064,121.519005 596.690796,127.459099 600.768311,129.447769 
	C604.927917,131.476471 610.437073,127.483429 615.390930,126.282043 
	C647.936279,118.389389 679.918396,119.347191 710.356201,134.059494 
	C744.254517,150.444397 765.409973,178.360886 778.220886,213.139618 
	C781.445435,221.893707 783.549316,230.960190 785.208374,240.110275 
	C785.650879,242.550888 786.556763,243.993515 788.717712,245.023468 
	C793.649231,247.373825 797.436707,251.079178 800.780029,255.752411 
	C801.000000,267.020905 801.000000,278.041779 801.000000,289.531342 
M175.726990,388.658813 
	C189.369339,388.641937 203.102417,389.497223 216.809814,385.066833 
	C215.545212,382.216003 214.677078,380.066803 213.658615,377.991394 
	C193.075851,336.048920 183.291885,292.059113 187.522461,245.160782 
	C189.792786,219.992950 195.456238,195.702148 203.735870,171.918945 
	C204.909241,168.548416 206.718964,167.888077 209.782028,169.383224 
	C214.121445,171.501373 218.430054,173.722260 222.909592,175.502228 
	C227.098160,177.166580 227.735611,179.452881 226.215958,183.626633 
	C214.818268,214.930634 209.506729,247.102783 212.151855,280.523041 
	C213.828476,301.706573 218.123810,322.237457 225.437119,342.135223 
	C230.030121,354.631683 235.475266,366.754120 242.693787,377.949646 
	C246.207794,377.683960 249.061615,376.258636 251.980240,375.104614 
	C274.013550,366.392975 293.487335,353.254456 312.713501,339.735718 
	C342.281525,318.945282 370.709625,296.611816 399.784851,275.153717 
	C433.425110,250.326538 466.644440,224.951874 499.590149,199.210785 
	C521.232422,182.301239 541.995972,164.223145 565.307800,149.507080 
	C569.315308,146.977264 573.846802,145.147507 577.161194,141.631729 
	C547.926392,93.836266 482.266785,37.247349 386.179016,49.403770 
	C350.225525,53.952389 318.487701,68.563110 290.338348,91.052544 
	C272.840637,105.032028 258.121307,121.586029 245.855499,141.023926 
	C255.921036,146.045654 264.750854,151.683746 273.419830,157.556381 
	C296.192169,172.983185 317.336517,190.588257 339.343933,207.039734 
	C360.020264,222.496170 380.642395,238.028503 401.828125,252.790268 
	C404.515656,254.662903 406.873047,256.496887 402.812561,259.507629 
	C395.721771,264.765228 388.706909,270.127350 381.733582,275.540161 
	C379.254639,277.464386 377.158752,277.546814 374.597778,275.552307 
	C345.291473,252.728149 315.037750,231.154175 285.854187,208.161041 
	C263.438293,190.500031 240.206039,174.045380 213.536087,163.196121 
	C193.379532,154.996536 172.491638,151.539688 151.017227,155.957870 
	C108.128799,164.781860 83.512131,192.727097 71.536568,233.470932 
	C70.655670,236.467972 71.216805,238.521118 73.450844,240.965866 
	C85.452553,254.099594 83.968613,274.320282 70.157593,285.287781 
	C67.314644,287.545380 66.815605,289.655273 67.402260,292.852142 
	C77.008186,345.198273 121.177216,384.631622 175.726990,388.658813 
M367.536652,473.749725 
	C393.287354,480.390472 419.291473,480.443237 445.161255,475.317566 
	C489.908936,466.451630 526.748779,443.834015 556.341980,409.249664 
	C557.266724,408.168884 558.722412,407.283569 558.159058,405.234619 
	C507.674469,382.518799 465.856293,346.728119 421.010803,313.835785 
	C429.710785,307.225006 437.400940,301.429657 445.029755,295.554688 
	C447.257111,293.839417 448.651978,295.320374 450.272430,296.514496 
	C465.021790,307.383392 479.761139,318.266174 494.556213,329.072662 
	C517.034302,345.490814 539.530579,361.872711 565.524109,372.581238 
	C596.308411,385.263428 627.830261,392.151978 661.372437,386.757721 
	C706.065552,379.570221 742.832703,346.146088 753.589355,302.382965 
	C754.458984,298.844971 754.099976,296.487762 751.326843,293.650879 
	C739.475952,281.527435 739.798889,261.852753 752.033142,250.670624 
	C754.754211,248.183548 755.185364,245.909912 754.473022,242.864532 
	C749.660095,222.288467 741.360474,203.440842 727.131104,187.498749 
	C699.489807,156.530304 655.996582,147.074478 618.965088,160.202026 
	C614.493286,161.787262 613.653870,163.524673 615.437256,168.128174 
	C631.748413,210.232590 638.368103,253.625549 632.451904,298.694977 
	C628.953369,325.346588 620.677979,350.484619 609.680054,374.859924 
	C608.517822,377.435974 607.143127,378.406799 604.298279,377.551727 
	C598.886902,375.925293 593.411438,374.505432 587.938477,373.092957 
	C584.198242,372.127655 583.844971,370.420502 585.521484,366.956848 
	C604.014343,328.751434 612.719666,288.672302 608.769409,246.079742 
	C606.602539,222.715698 601.124695,200.264008 592.312500,178.553711 
	C590.772400,174.759354 589.312073,173.794830 585.441040,176.139999 
	C566.543152,187.588882 549.820618,201.883224 532.801880,215.799362 
	C531.947876,216.497665 530.818604,217.160248 531.218872,218.752319 
	C533.470276,220.990448 536.661499,221.682297 539.468994,223.056870 
	C545.401794,225.961655 545.508850,225.934326 548.132141,219.764206 
	C549.547913,216.434387 551.734741,215.514603 554.134338,218.204163 
	C557.025818,221.445068 560.808228,221.738815 564.512634,222.375198 
	C568.046143,222.982208 572.142761,223.232895 573.218018,218.841171 
	C574.227356,214.718887 571.406372,211.829025 567.668640,210.547180 
	C564.687012,209.524658 562.678345,207.277893 560.171143,205.691040 
	C557.795837,204.187744 557.770874,201.962006 560.384583,200.620377 
	C566.743408,197.356384 572.953369,193.670624 579.999634,192.004654 
	C587.011353,190.346878 589.805237,191.949249 592.154114,198.719284 
	C596.144470,210.220139 598.667419,222.086945 600.175110,234.123337 
	C601.495972,244.668030 602.452209,255.273560 602.341248,265.938202 
	C602.316284,268.345459 601.676819,270.385773 599.299561,271.099976 
	C596.699280,271.881195 594.688660,270.371155 593.499634,268.251648 
	C592.547974,266.555450 592.081970,264.548676 591.609924,262.628235 
	C589.537048,254.195465 585.457092,246.862122 579.671753,240.385284 
	C583.015259,249.226181 586.857727,257.835327 588.914612,267.082855 
	C590.368225,273.618256 592.896057,279.268677 600.952209,278.769653 
	C602.162537,285.851654 601.034058,292.328918 599.982971,298.661713 
	C596.145508,321.782410 588.392700,343.680115 578.528992,364.893188 
	C576.860657,368.481171 574.331238,369.338379 572.112000,366.815216 
	C568.881042,363.141815 564.364807,362.999115 560.540833,361.080170 
	C549.956116,355.768402 539.738647,349.816803 529.673584,343.601257 
	C523.043274,339.506866 521.685730,335.122803 524.564758,327.705627 
	C525.768799,324.603607 527.409241,321.650940 528.385620,318.486633 
	C529.248962,315.688354 528.319336,313.701477 524.833923,314.762299 
	C523.147888,315.275421 521.760681,315.800690 520.532410,313.844940 
	C518.124634,310.011230 514.888550,310.122406 510.966980,311.659058 
	C498.793610,316.429077 487.025116,317.177704 476.557587,307.375214 
	C474.506073,305.454041 472.075256,303.912109 469.716797,302.350128 
	C465.310364,299.431671 462.946899,295.320190 461.510773,290.283112 
	C459.842743,284.432465 461.467896,278.415955 460.097198,271.663269 
	C431.950531,292.638824 404.289886,313.252228 376.446869,334.001495 
	C379.494720,337.684906 383.097534,338.831909 386.852631,339.647217 
	C394.649200,341.340027 402.560455,342.673126 409.939178,345.831757 
	C416.976746,348.844299 419.220642,355.692902 415.486633,362.378906 
	C414.359467,364.397156 412.956726,366.329559 411.373169,368.012329 
	C406.430969,373.264282 404.190735,379.363831 404.268402,386.603577 
	C404.351837,394.381378 400.415924,400.308929 392.969666,401.584473 
	C385.577148,402.850830 383.216858,407.347015 381.627472,413.536316 
	C379.533173,421.691711 375.557037,428.313965 365.955322,429.769440 
	C367.269043,435.059174 366.269135,438.831421 360.212494,439.428436 
	C359.045288,439.543427 358.161102,440.428589 357.913300,441.761719 
	C357.069000,446.303558 360.992889,452.657654 365.626251,454.068634 
	C386.960846,460.565674 408.632721,461.625916 430.724304,458.907196 
	C452.840179,456.185486 473.621277,449.748688 492.924377,438.662292 
	C500.109161,434.535858 507.131378,430.105988 512.476562,424.973541 
	C508.765472,412.345123 518.429504,401.266602 513.675537,389.401215 
	C524.941284,395.782379 535.464417,401.999207 546.799011,407.663025 
	C541.644836,415.346954 535.381470,421.226288 528.714539,426.718811 
	C490.912231,457.862091 448.328339,474.898285 398.559662,471.443146 
	C374.254364,469.755707 351.358887,462.957703 329.872253,452.109924 
	C307.838837,440.986115 288.792542,425.518951 272.629456,406.759247 
	C269.333557,402.933960 266.586853,402.838684 262.713043,406.496002 
	C290.737396,439.331421 324.897491,462.358368 367.536652,473.749725 
z"/>
<path fill="#000000" opacity="1.000000" stroke="none" 
	d="
M255.521866,197.435944 
	C270.733093,205.878738 284.114685,216.399399 298.168030,225.916977 
	C300.536865,227.521255 301.677704,229.126724 300.369232,232.075455 
	C298.910095,235.363602 299.014404,238.861877 299.875061,242.350250 
	C300.150482,243.466507 300.339600,244.652618 300.282410,245.792419 
	C300.158081,248.269363 300.236603,251.277771 297.419403,252.134415 
	C294.399994,253.052536 293.848602,249.847794 292.593048,248.045670 
	C291.737946,246.818359 291.017609,245.497070 290.238739,244.216736 
	C285.813904,236.942963 284.405396,236.325119 276.015808,237.700806 
	C274.056274,238.022141 272.028229,238.381897 270.076569,238.211136 
	C263.668976,237.650467 260.041840,241.127029 257.935120,246.520813 
	C254.877029,254.350449 253.635559,262.291443 258.201477,270.066040 
	C260.616699,274.178528 262.534729,274.488892 266.114227,271.351257 
	C268.113861,269.598480 269.908569,267.614105 271.855042,265.797791 
	C273.676300,264.098358 275.796478,263.886383 277.770660,265.351013 
	C280.019684,267.019562 279.208252,269.008026 278.123108,271.106049 
	C274.575104,277.965729 275.901337,281.060394 283.082703,283.099274 
	C289.548737,284.935059 290.309021,286.607574 287.438843,292.681763 
	C284.507843,298.884674 285.359741,300.537109 291.871796,302.915955 
	C297.037964,304.803223 301.517792,304.651398 305.537872,300.437866 
	C309.908508,295.856903 315.382446,294.397949 321.510864,295.679443 
	C328.313660,297.101898 335.365540,297.201996 341.992065,299.500946 
	C344.200378,300.267059 346.613556,301.199493 347.030518,303.836487 
	C347.444458,306.454193 345.047272,307.461029 343.327332,308.666382 
	C319.084625,325.655884 295.914459,344.261780 269.405670,357.841522 
	C262.739380,361.256470 255.995682,364.522095 249.363022,368.000244 
	C246.815384,369.336243 245.201187,369.246063 243.840729,366.382874 
	C233.297882,344.194305 225.528244,321.162415 221.575546,296.837036 
	C219.074417,281.444794 219.148987,265.966339 219.858643,250.553284 
	C220.816269,229.755203 224.436157,209.294632 231.667633,189.654709 
	C234.038467,183.215775 234.278702,183.405685 239.744553,187.134705 
	C244.831314,190.605118 250.053070,193.877625 255.521866,197.435944 
M231.102417,246.831268 
	C231.526810,251.939041 232.028290,257.041840 232.358124,262.155701 
	C232.898849,270.539520 241.117798,280.414307 250.818985,283.714844 
	C240.399139,276.520721 235.934036,267.273529 234.727356,256.244873 
	C234.015594,249.739563 233.366898,243.219116 230.459732,236.136261 
	C230.322083,240.115585 230.131683,243.051865 231.102417,246.831268 
M262.324554,289.044006 
	C267.800293,291.522980 271.904114,295.421539 274.859467,300.674805 
	C276.655853,303.867981 279.122406,306.636536 281.982910,308.919769 
	C286.661743,312.654388 291.797272,314.022278 298.046051,311.149933 
	C285.895721,309.832001 281.438751,307.488434 277.643372,299.639740 
	C272.988281,290.013214 263.911163,287.997925 254.826187,285.862000 
	C257.105042,286.809967 259.383881,287.757935 262.324554,289.044006 
z"/>
<path fill="#000000" opacity="1.000000" stroke="none" 
	d="
M379.417877,57.487328 
	C382.309570,58.533417 381.078461,59.103031 379.483673,59.662788 
	C376.839905,60.590752 374.074982,61.321480 371.912720,64.349495 
	C377.008636,64.444115 381.487457,63.391682 385.322144,61.111557 
	C398.975830,52.992958 412.412598,55.341175 425.939789,61.213554 
	C430.983734,63.403233 434.650970,67.009911 435.957275,72.317451 
	C439.581879,87.044487 437.802765,96.490013 424.308167,102.175323 
	C415.374451,105.939117 409.247070,111.951088 406.721039,121.788292 
	C404.949677,128.686523 396.624908,129.596451 391.281006,123.477531 
	C385.514862,116.875168 382.071808,109.131927 383.969025,100.054184 
	C384.594086,97.063538 384.686127,94.116081 384.695435,91.132713 
	C384.723541,82.104065 378.583618,77.259064 369.613739,79.130470 
	C368.989288,79.260742 368.314087,79.147499 367.481262,79.147499 
	C365.831238,75.885651 367.046326,72.370682 366.688538,68.562294 
	C360.306213,71.870117 356.257935,77.246956 351.746399,82.005005 
	C349.709686,84.152992 352.050476,85.955727 353.518005,87.438332 
	C358.372986,92.343094 362.036011,98.291595 367.698364,102.558144 
	C370.361938,104.565140 370.709290,109.520622 367.933258,110.925972 
	C362.828735,113.510094 361.761322,117.725014 360.842407,123.128754 
	C353.960541,120.875641 347.593933,118.791229 340.874298,116.591232 
	C341.528717,110.981956 346.860077,107.029236 345.857605,101.017265 
	C343.807648,99.753059 341.437378,100.327995 339.189026,100.385475 
	C336.362091,100.457748 334.566498,101.772255 334.306213,104.921005 
	C334.130035,107.052765 333.630219,109.202126 332.958588,111.239235 
	C331.613708,115.318253 330.266815,118.556038 324.302765,117.501633 
	C317.273804,116.258972 306.190460,125.122429 304.659058,131.972290 
	C303.773926,135.931412 306.432404,138.267929 309.086365,140.237991 
	C314.398102,144.180893 320.359924,147.442093 322.344635,154.779587 
	C323.131409,152.649780 323.957855,150.533493 324.689972,148.385056 
	C325.123047,147.114120 325.382690,145.494781 326.677765,145.074722 
	C332.204956,143.281967 332.083557,138.540527 332.699280,134.134796 
	C332.974792,132.163513 333.163269,130.170395 333.593689,128.232132 
	C335.484436,119.717621 342.153168,117.666016 348.774384,123.399292 
	C351.344513,125.624786 352.264923,129.055145 354.705841,131.237213 
	C362.352295,128.767014 363.714172,129.297653 365.968689,136.804520 
	C367.144409,140.719223 369.748718,143.027496 373.016052,144.770569 
	C376.872467,146.827942 378.286774,150.048065 377.086914,153.926254 
	C375.742737,158.270859 377.478271,161.309494 380.015259,164.369965 
	C381.071564,165.644180 382.220886,166.958755 382.829834,168.457367 
	C383.644196,170.461548 384.072021,172.831604 382.483917,174.613998 
	C381.100983,176.166138 379.057281,175.412674 377.279755,175.052780 
	C374.679077,174.526276 372.108551,173.566818 369.495697,173.449585 
	C365.376373,173.264771 365.307007,171.278732 366.345642,168.165939 
	C367.109039,165.878174 369.245117,164.027542 368.560455,160.566177 
	C362.173553,162.544174 355.967072,164.466309 349.368835,166.509750 
	C351.593475,170.660782 357.427399,170.545013 356.421936,176.060730 
	C358.120850,175.505066 359.335541,175.076782 360.569397,174.713531 
	C361.650024,174.395386 362.525177,174.813065 363.222076,175.640625 
	C364.120514,176.707504 363.818115,177.752518 363.243927,178.873657 
	C361.218536,182.828522 354.385498,185.864227 350.058990,184.375061 
	C347.441772,183.474228 345.253815,183.575043 343.062012,185.281540 
	C342.019379,186.093338 340.790161,186.667145 339.639252,187.338074 
	C332.195007,191.677734 330.632019,191.579117 324.087738,186.146988 
	C306.655457,171.677231 289.257416,157.166199 271.794525,142.733536 
	C269.493622,140.831894 267.031494,139.030899 264.400940,137.644547 
	C260.364899,135.517441 260.411926,133.087677 262.758270,129.630615 
	C273.979706,113.097229 288.938416,100.428917 304.811493,88.706390 
	C312.328674,83.154839 320.416901,78.486000 328.592865,73.985443 
	C330.234619,73.081718 331.882355,71.266472 334.013458,72.880646 
	C335.155853,73.745949 335.576904,75.144569 335.143829,76.494507 
	C334.422882,78.741821 333.436646,81.021713 330.706848,81.325790 
	C325.825531,81.869530 322.182770,85.015228 318.221222,87.313858 
	C313.980652,89.774368 313.283691,94.544060 316.241486,96.792229 
	C317.509216,97.755791 318.937561,99.086929 320.689148,97.628197 
	C322.026611,96.514359 323.038544,95.177322 322.129761,93.295982 
	C321.182709,91.335373 321.333374,89.660439 323.501801,88.753616 
	C329.787048,86.125153 336.287811,84.259323 343.234924,83.069885 
	C340.457458,81.469543 340.333038,79.008057 341.871368,76.233139 
	C342.271790,75.510933 342.796844,74.679718 342.761902,73.921768 
	C342.398529,66.045868 348.587280,64.256348 354.002808,62.080853 
	C362.021759,58.859535 370.173401,55.861462 379.417877,57.487328 
z"/>
<path fill="#000000" opacity="1.000000" stroke="none" 
	d="
M549.441162,147.466797 
	C528.530701,163.510574 509.631805,181.450623 488.804474,197.022629 
	C485.983459,199.131882 483.106079,203.478317 479.560516,201.788681 
	C475.621307,199.911438 478.219849,194.864868 477.584320,191.264496 
	C477.470428,190.619339 477.579926,189.934326 477.590057,189.267761 
	C477.750793,178.686951 478.315216,178.178909 488.819824,180.225311 
	C491.221497,180.693192 493.178406,180.369415 494.580719,178.409027 
	C495.988800,176.440567 494.849365,174.577728 493.848816,172.843246 
	C493.355347,171.987808 492.666351,171.234451 492.006470,170.487350 
	C486.776062,164.565826 486.702087,164.479477 493.194183,159.474274 
	C498.526550,155.363266 501.745911,149.755630 504.706146,143.959015 
	C506.562927,140.323090 508.591461,139.566498 512.136658,142.090973 
	C517.413147,145.848312 522.721008,143.542664 527.647156,141.061737 
	C532.168396,138.784729 531.439392,134.096512 531.790344,130.020782 
	C531.829163,129.569168 531.858154,128.849747 531.605164,128.678879 
	C524.854614,124.120049 523.237061,116.598694 520.633545,109.253517 
	C517.252930,112.750328 518.392822,116.157730 520.003784,119.429253 
	C522.553894,124.607849 523.045837,129.847412 521.435608,135.407730 
	C520.830444,137.497330 519.931458,139.034576 517.837280,139.851425 
	C515.556458,139.203445 514.710144,136.982071 513.185547,135.535126 
	C509.951477,132.465790 506.522308,130.298630 501.772522,130.197021 
	C495.534454,130.063568 490.196014,120.138725 494.117920,115.251030 
	C501.775330,105.707848 498.140198,94.249008 491.877899,86.420738 
	C489.314636,83.216461 485.383636,79.899277 488.847992,75.555191 
	C492.301819,71.224251 496.783600,74.335663 500.243042,76.022728 
	C512.460449,81.980782 523.051514,90.412628 533.153748,99.382629 
	C544.004272,109.017059 554.225342,119.253769 562.521973,131.314316 
	C565.393372,135.488388 564.454529,137.797165 560.588074,140.133148 
	C556.885132,142.370377 553.335693,144.861588 549.441162,147.466797 
z"/>
<path fill="#000000" opacity="1.000000" stroke="none" 
	d="
M475.429230,140.429138 
	C478.495880,139.692291 478.489166,138.083374 477.702881,135.811966 
	C476.823242,133.270767 476.045471,130.267258 479.122772,128.747101 
	C482.310822,127.172272 484.000793,129.997757 485.536133,132.072220 
	C488.997803,136.749481 492.211456,141.609512 495.625031,146.323502 
	C497.182831,148.474747 496.953125,150.199951 495.098450,152.017258 
	C493.398224,153.683212 491.521912,155.007233 489.283600,155.775345 
	C485.050323,157.228058 483.302673,155.817780 483.621643,151.381516 
	C483.763367,149.410004 485.527802,147.258148 482.768127,145.144684 
	C482.325012,147.415054 481.655151,149.369202 480.244659,151.000671 
	C477.887390,153.727264 475.317413,155.868607 471.754547,153.267929 
	C469.186432,151.393372 469.125214,145.781265 471.500885,143.216873 
	C472.491852,142.147171 473.895569,141.459824 475.429230,140.429138 
z"/>
<path fill="#000000" opacity="1.000000" stroke="none" 
	d="
M454.883789,106.838669 
	C457.485626,110.540329 454.920563,112.812309 452.788483,114.644981 
	C449.715088,117.286781 445.972015,117.953583 442.055359,116.189568 
	C439.220245,114.912636 437.629791,112.635925 437.236023,109.678444 
	C436.978699,107.745674 438.362274,106.335640 440.164124,106.292755 
	C444.942261,106.179024 449.769348,105.009865 454.883789,106.838669 
z"/>
<path fill="#000000" opacity="1.000000" stroke="none" 
	d="
M292.204956,259.174683 
	C299.112610,260.279816 304.419006,264.296356 310.385559,266.769165 
	C312.389496,267.599701 312.428833,269.206940 311.348083,270.877899 
	C310.404327,272.337189 308.612030,274.119568 307.387390,272.753326 
	C301.701447,266.409973 293.614685,266.917511 286.145355,265.094604 
	C286.840607,261.554749 289.142212,260.195496 292.204956,259.174683 
z"/>
<path fill="#000000" opacity="1.000000" stroke="none" 
	d="
M312.806946,272.034180 
	C317.337036,268.889648 321.853912,270.100464 326.237366,271.214508 
	C328.012512,271.665680 329.282318,273.336029 329.086182,275.399414 
	C328.878479,277.585114 326.907898,277.647919 325.339355,277.887878 
	C322.739685,278.285583 320.113159,278.534912 317.489716,278.743591 
	C313.171539,279.087097 311.607300,277.018707 312.806946,272.034180 
z"/>
<path fill="#000000" opacity="1.000000" stroke="none" 
	d="
M305.397888,275.876587 
	C305.660614,280.658875 303.058563,281.572357 297.404114,278.529510 
	C300.159943,277.533997 302.111023,275.466766 305.397888,275.876587 
z"/>
</svg>