<svg id="svg" version="1.1" xmlns="http://www.w3.org/2000/svg" xmlns:xlink="http://www.w3.org/1999/xlink" width="400" height="400" viewBox="0, 0, 400,400"><g id="svgg"><path id="path0" d="M197.391 59.391 C 186.159 61.391,174.658 75.862,172.612 90.567 C 171.681 97.266,174.354 110.897,176.492 110.350 C 177.416 110.114,180.187 109.520,183.789 108.786 C 191.381 107.239,208.387 107.152,215.144 108.627 C 216.061 108.827,217.467 109.090,218.269 109.212 C 219.071 109.333,220.925 109.700,222.391 110.027 C 225.648 110.754,225.203 111.320,226.627 104.634 C 228.072 97.848,228.284 91.280,227.192 87.109 C 222.609 69.599,209.345 57.262,197.391 59.391 M187.305 113.473 C 185.371 113.747,183.262 114.078,182.617 114.208 C 181.973 114.339,181.079 114.519,180.631 114.610 C 157.241 119.334,136.452 133.139,123.047 152.849 L 120.117 157.156 114.157 157.069 C 92.235 156.746,72.801 169.539,65.444 189.136 C 64.851 190.716,64.462 191.116,62.610 192.053 C 51.974 197.434,51.430 211.559,61.653 216.930 L 64.369 218.358 65.057 221.190 C 70.713 244.460,94.241 260.647,121.032 259.702 L 124.759 259.570 126.245 261.685 C 134.302 273.153,149.223 284.916,163.467 291.028 C 202.459 307.759,245.125 297.093,271.731 263.964 L 275.418 259.373 279.213 259.607 C 304.113 261.146,328.997 244.254,335.223 221.586 L 336.133 218.275 338.296 217.182 C 348.478 212.035,347.979 197.039,337.461 192.079 C 335.383 191.100,335.228 190.924,334.383 188.590 C 327.530 169.667,309.143 157.694,286.179 157.201 L 279.976 157.068 277.422 153.241 C 264.038 133.191,243.447 119.429,219.727 114.679 C 218.008 114.335,216.162 113.962,215.625 113.850 C 210.605 112.806,193.598 112.579,187.305 113.473 M120.117 115.143 C 110.815 115.969,100.747 120.375,91.797 127.535 C 84.635 133.264,76.996 144.137,74.091 152.734 C 72.217 158.283,71.362 164.851,72.381 165.871 C 72.495 165.985,74.405 165.003,76.626 163.688 C 89.435 156.107,100.371 152.474,111.604 152.068 L 117.934 151.839 119.481 149.454 C 124.961 141.009,134.435 131.358,142.901 125.597 L 145.755 123.655 144.459 122.595 C 141.476 120.154,134.597 116.721,131.673 116.213 C 130.940 116.086,130.173 115.879,129.970 115.753 C 129.524 115.478,121.764 114.997,120.117 115.143 M269.594 115.872 C 263.358 117.225,253.059 122.912,254.856 124.011 C 263.917 129.551,274.567 140.070,280.664 149.502 L 282.227 151.919 285.812 151.936 C 288.855 151.951,292.713 152.311,296.378 152.925 C 304.096 154.216,317.366 159.841,325.141 165.117 C 328.253 167.229,328.846 166.363,328.141 160.742 C 324.830 134.337,293.867 110.608,269.594 115.872 M216.797 126.910 C 237.114 131.456,254.739 142.700,264.809 157.541 C 266.278 159.705,266.190 160.363,264.382 160.751 C 260.985 161.479,253.784 165.322,249.023 168.948 C 247.520 170.094,242.861 173.093,238.672 175.613 C 228.916 181.481,226.572 183.061,211.804 193.720 C 205.084 198.570,199.336 202.709,199.030 202.916 C 198.071 203.567,178.651 190.023,163.546 178.169 C 156.410 172.569,150.135 168.651,141.504 164.407 C 137.153 162.268,133.594 160.389,133.594 160.232 C 133.594 159.179,139.733 151.719,143.799 147.832 C 162.830 129.638,191.835 121.325,216.797 126.910 M121.522 172.059 C 130.391 174.311,135.457 177.144,150.238 188.115 C 157.207 193.288,167.542 200.829,179.908 209.766 C 182.138 211.377,183.967 212.812,183.973 212.955 C 183.988 213.290,169.124 223.934,161.328 229.170 C 152.809 234.892,134.183 243.750,130.671 243.750 C 129.511 243.750,124.665 232.173,122.904 225.195 C 118.930 209.449,119.282 195.234,124.050 178.874 C 124.314 177.966,118.477 175.949,113.583 175.258 L 112.127 175.052 111.359 177.663 C 107.399 191.125,106.410 207.536,108.789 220.313 C 108.889 220.850,109.064 221.858,109.178 222.553 C 110.135 228.407,112.446 236.049,115.199 242.459 C 115.863 244.005,116.406 245.367,116.406 245.486 C 116.406 245.853,111.994 245.727,109.544 245.290 C 95.426 242.774,83.708 234.047,78.659 222.287 C 76.635 217.572,76.635 217.562,78.697 216.108 C 85.453 211.346,85.730 200.074,79.231 194.388 L 77.245 192.651 78.535 190.396 C 87.292 175.090,104.521 167.740,121.522 172.059 M296.680 171.864 C 307.840 174.710,317.734 182.344,322.083 191.463 L 322.760 192.882 320.633 195.009 C 314.156 201.486,315.089 212.852,322.421 216.775 C 323.627 217.421,323.603 217.560,321.491 222.117 C 315.840 234.306,304.473 242.572,289.904 245.086 C 286.683 245.642,283.203 245.899,283.203 245.581 C 283.203 245.514,283.580 244.679,284.041 243.726 C 286.434 238.774,290.149 226.813,290.828 221.875 C 290.960 220.908,291.227 219.414,291.421 218.555 C 293.847 207.774,291.975 186.806,287.487 174.510 C 286.850 172.764,286.328 171.166,286.328 170.960 C 286.328 170.370,293.161 170.967,296.680 171.864 M275.145 177.539 C 282.051 198.845,280.820 220.159,271.541 239.947 C 269.194 244.952,269.051 245.069,266.211 244.325 C 258.206 242.226,242.053 233.815,228.125 224.493 C 221.334 219.948,212.098 213.118,212.214 212.727 C 212.468 211.877,224.311 203.278,234.961 196.211 C 240.977 192.219,248.184 187.245,250.977 185.159 C 259.041 179.133,264.423 175.972,270.313 173.802 C 273.801 172.516,273.422 172.224,275.145 177.539 M201.530 224.764 C 203.404 225.923,208.674 229.306,213.242 232.283 C 226.359 240.831,231.501 243.872,240.234 248.250 C 245.079 250.678,256.819 255.997,258.691 256.611 C 260.885 257.331,260.617 257.825,254.980 263.441 C 225.522 292.790,181.802 294.303,148.659 267.119 C 144.544 263.744,138.592 257.302,138.885 256.540 C 138.997 256.249,141.411 254.976,144.251 253.712 C 153.135 249.758,163.211 244.440,170.313 239.958 C 174.072 237.585,181.719 232.727,187.305 229.161 C 199.169 221.588,197.320 222.159,201.530 224.764 M124.572 272.146 C 112.309 281.294,104.702 297.687,107.166 309.656 C 108.723 317.223,111.860 319.293,117.474 316.459 C 120.572 314.895,120.799 314.913,122.345 316.839 C 126.145 321.575,132.595 322.174,138.470 318.339 L 141.394 316.430 144.508 316.670 L 147.621 316.910 148.940 315.584 C 149.666 314.855,150.576 313.379,150.964 312.305 C 151.351 311.230,152.532 308.171,153.587 305.506 C 155.337 301.089,156.098 299.519,158.281 295.827 L 159.015 294.584 155.527 292.782 C 146.971 288.363,137.274 281.118,131.017 274.470 L 127.074 270.280 124.572 272.146 M267.664 275.624 C 260.627 282.711,252.634 288.684,244.892 292.641 C 243.190 293.511,241.797 294.297,241.797 294.389 C 241.797 294.480,242.512 295.816,243.385 297.358 C 245.138 300.451,247.676 306.218,249.028 310.179 C 251.039 316.072,252.061 316.989,256.228 316.644 L 259.135 316.403 261.754 318.160 C 267.747 322.181,272.823 321.788,277.663 316.928 C 279.672 314.910,279.658 314.912,282.554 316.438 C 287.569 319.082,291.705 317.090,292.762 311.523 C 293.287 308.756,293.768 304.182,293.597 303.581 C 293.495 303.223,293.303 302.051,293.172 300.977 C 291.937 290.882,285.290 279.554,276.831 273.127 C 272.634 269.938,273.561 269.685,267.664 275.624 M209.375 303.578 C 208.408 303.780,203.354 303.890,198.145 303.823 C 189.492 303.710,188.672 303.756,188.672 304.354 C 188.672 308.158,191.235 315.031,193.806 318.122 C 198.905 324.253,204.929 322.586,209.184 313.867 C 210.874 310.404,212.420 303.023,211.426 303.168 C 211.265 303.191,210.342 303.376,209.375 303.578 " stroke="none" fill="#053f52" fill-rule="evenodd"></path><path id="path1" d="M122.363 115.124 C 122.954 115.213,123.921 115.213,124.512 115.124 C 125.103 115.034,124.619 114.961,123.438 114.961 C 122.256 114.961,121.772 115.034,122.363 115.124 M276.081 115.127 C 276.783 115.214,277.838 115.212,278.425 115.123 C 279.012 115.034,278.438 114.963,277.148 114.965 C 275.859 114.967,275.379 115.040,276.081 115.127 M192.291 132.413 C 190.052 133.432,186.509 135.873,183.647 138.368 C 182.329 139.516,180.540 140.660,179.607 140.950 C 177.394 141.637,176.953 142.054,176.953 143.459 C 176.953 144.871,178.206 144.842,182.839 143.323 C 185.976 142.295,186.443 142.496,187.721 145.422 C 188.118 146.328,188.845 147.567,189.338 148.175 C 190.557 149.677,190.523 150.781,189.258 150.781 C 188.008 150.781,188.028 151.237,189.369 153.250 C 189.967 154.148,190.871 155.938,191.378 157.227 C 192.371 159.756,194.393 162.246,195.203 161.935 C 195.478 161.830,195.703 161.920,195.703 162.135 C 195.703 163.971,197.737 161.077,198.464 158.207 C 199.035 155.953,205.400 149.219,206.959 149.219 C 212.953 149.219,213.006 137.413,207.031 133.104 L 205.273 131.836 199.609 131.748 C 194.725 131.671,193.718 131.763,192.291 132.413 M182.813 132.991 C 181.631 133.267,180.049 133.626,179.297 133.787 C 178.335 133.993,177.003 134.980,174.805 137.114 C 173.086 138.783,171.279 140.352,170.790 140.601 C 170.300 140.851,170.009 141.231,170.142 141.447 C 170.295 141.694,170.716 141.622,171.280 141.252 C 172.268 140.605,172.656 140.777,172.656 141.862 C 172.656 142.318,172.372 142.578,171.875 142.578 C 171.445 142.578,171.074 142.798,171.051 143.066 C 171.027 143.335,170.962 144.096,170.905 144.758 C 170.770 146.325,170.043 147.656,169.322 147.656 C 168.596 147.656,168.596 147.227,169.324 146.266 C 170.966 144.094,169.798 142.221,167.378 143.145 C 164.531 144.232,164.033 145.800,165.917 147.744 C 167.608 149.490,167.000 150.931,164.668 150.703 C 163.384 150.577,163.190 149.812,164.437 149.793 C 165.863 149.771,165.766 149.203,164.055 147.559 C 163.113 146.654,162.499 146.174,162.691 146.492 C 162.995 146.995,162.952 146.998,162.362 146.519 C 161.731 146.007,161.787 145.862,163.140 144.476 C 163.942 143.655,164.507 142.892,164.396 142.782 C 164.082 142.467,160.402 143.784,159.918 144.384 C 159.321 145.125,158.984 145.057,158.984 144.197 C 158.984 143.379,164.179 140.780,168.052 139.660 C 170.144 139.056,173.210 136.361,172.554 135.705 C 171.988 135.139,162.896 138.988,158.527 141.642 C 155.833 143.279,153.251 147.628,153.592 149.954 C 153.739 150.954,153.020 151.953,152.154 151.953 C 151.754 151.953,151.971 150.561,152.541 149.467 C 153.179 148.245,153.320 146.261,152.793 145.935 C 152.330 145.648,146.912 150.716,143.454 154.671 C 140.624 157.908,139.290 159.763,140.195 159.204 C 140.432 159.058,140.625 159.096,140.625 159.289 C 140.625 159.482,141.079 159.847,141.633 160.100 C 143.296 160.857,151.160 165.988,154.297 168.362 C 162.028 174.213,171.460 181.180,172.983 182.164 L 174.677 183.259 177.156 182.179 C 179.909 180.980,180.068 180.169,177.712 179.348 L 176.502 178.926 177.403 177.256 C 177.898 176.337,178.339 175.525,178.382 175.451 C 178.631 175.020,181.071 176.028,182.595 177.193 C 184.543 178.680,184.787 179.262,183.594 179.574 C 182.050 179.978,182.856 180.469,185.059 180.467 C 189.519 180.462,191.660 179.199,191.015 176.953 C 190.309 174.488,188.893 172.959,183.247 168.562 C 181.866 167.487,181.250 166.728,181.250 166.102 C 181.250 163.565,179.846 162.426,177.317 162.911 C 175.087 163.339,173.217 162.758,172.567 161.434 C 171.070 158.388,169.283 159.358,169.464 163.118 C 169.750 169.050,166.174 171.869,164.030 167.401 C 163.726 166.766,162.686 165.650,161.719 164.921 C 160.752 164.193,159.461 163.158,158.849 162.621 L 157.738 161.646 159.142 160.692 C 159.915 160.167,160.552 159.612,160.558 159.459 C 160.565 159.305,161.106 158.589,161.762 157.868 L 162.955 156.556 164.018 157.575 C 165.742 159.226,167.001 157.752,165.819 155.466 C 164.981 153.846,165.069 153.598,166.632 153.166 C 167.401 152.954,168.600 152.346,169.297 151.814 C 171.717 149.968,172.821 150.248,174.044 153.014 C 176.092 157.645,179.432 159.127,181.955 156.524 C 184.057 154.355,182.246 150.819,179.018 150.792 C 177.565 150.780,176.952 149.943,176.955 147.975 C 176.956 147.263,176.667 145.870,176.312 144.881 C 175.335 142.155,175.727 141.328,178.691 139.854 C 181.153 138.629,185.949 134.642,186.742 133.160 C 187.226 132.255,186.150 132.209,182.813 132.991 M234.194 140.609 C 232.942 141.993,233.679 143.179,237.219 145.475 C 238.985 146.621,240.860 148.024,241.386 148.593 L 242.342 149.629 240.848 150.860 C 239.822 151.706,238.888 153.103,237.872 155.315 C 236.543 158.205,236.299 158.513,235.504 158.305 L 234.618 158.073 235.382 159.381 C 236.251 160.870,237.957 161.537,239.088 160.831 C 239.674 160.465,239.980 160.529,240.706 161.172 C 242.413 162.683,243.535 163.178,244.826 162.988 C 246.275 162.775,246.407 163.084,245.355 164.233 C 244.603 165.054,244.605 167.578,245.357 167.578 C 245.548 167.578,247.329 166.459,249.317 165.092 C 251.304 163.725,254.380 161.775,256.153 160.761 L 259.376 158.915 257.636 156.878 C 249.561 147.426,236.333 138.246,234.194 140.609 M213.746 151.480 C 212.460 151.684,212.328 152.428,213.254 154.244 C 215.374 158.400,218.750 158.578,218.750 154.535 C 218.750 152.837,215.952 151.129,213.746 151.480 M247.708 156.234 C 249.264 157.516,250.224 159.400,249.836 160.410 C 249.644 160.912,249.475 160.960,249.128 160.612 C 248.445 159.929,247.615 160.058,246.609 161.004 C 245.448 162.095,245.117 161.737,245.688 160.006 C 246.207 158.433,245.648 156.819,244.709 157.179 C 243.836 157.514,243.613 156.658,244.358 155.835 C 245.301 154.793,246.071 154.884,247.708 156.234 M230.859 164.421 C 230.859 164.619,231.160 165.304,231.527 165.943 C 232.076 166.901,232.112 167.285,231.730 168.123 C 231.092 169.525,229.480 169.533,229.130 168.136 C 228.692 166.392,227.940 167.319,227.734 169.855 C 227.449 173.383,228.049 174.039,229.761 172.070 C 230.962 170.688,231.311 170.822,232.764 173.220 C 233.979 175.225,234.111 175.323,235.088 174.952 C 237.052 174.205,240.211 171.508,239.160 171.475 C 238.999 171.470,238.213 171.314,237.413 171.128 C 236.168 170.839,235.805 170.922,234.898 171.701 C 233.446 172.948,233.139 172.589,233.257 169.787 C 233.339 167.830,233.180 167.075,232.401 165.726 C 231.499 164.161,230.859 163.620,230.859 164.421 M268.750 177.734 C 268.750 177.949,268.618 178.084,268.457 178.034 C 267.947 177.875,263.388 179.727,262.620 180.405 C 262.215 180.762,261.627 181.112,261.313 181.183 C 260.008 181.477,258.272 183.186,258.478 183.973 C 258.594 184.416,258.875 184.647,259.126 184.503 C 259.371 184.364,259.454 184.379,259.312 184.538 C 259.171 184.696,259.610 185.357,260.289 186.006 C 260.968 186.654,261.468 187.212,261.401 187.245 C 260.873 187.501,262.105 188.833,263.320 189.319 C 264.144 189.649,264.781 190.034,264.735 190.174 C 264.689 190.315,265.158 191.094,265.778 191.905 C 266.399 192.717,266.837 193.429,266.754 193.489 C 264.972 194.753,262.459 195.099,260.521 194.349 C 260.134 194.199,259.250 194.691,258.120 195.686 C 256.153 197.418,255.599 197.583,253.384 197.101 C 252.157 196.834,251.670 196.427,250.705 194.859 C 249.812 193.407,249.355 192.997,248.819 193.167 C 248.431 193.290,248.008 193.222,247.881 193.016 C 247.753 192.810,248.256 192.441,248.999 192.196 C 250.324 191.758,250.552 190.920,249.460 190.501 C 248.869 190.275,241.542 194.663,240.330 195.970 C 239.846 196.492,239.275 196.811,239.061 196.679 C 238.847 196.546,238.672 196.624,238.672 196.852 C 238.672 197.079,238.464 197.266,238.211 197.266 C 237.519 197.266,231.335 201.559,231.083 202.215 C 230.963 202.528,230.715 202.691,230.532 202.578 C 230.349 202.465,229.535 202.981,228.722 203.725 C 227.910 204.469,227.170 205.078,227.079 205.078 C 226.690 205.078,224.160 206.976,224.140 207.282 C 224.129 207.466,224.034 207.840,223.930 208.111 C 223.825 208.383,223.829 208.946,223.938 209.362 C 224.047 209.778,223.971 210.174,223.770 210.241 C 223.569 210.308,223.356 210.807,223.299 211.350 C 223.241 211.893,223.088 212.507,222.960 212.715 C 221.779 214.627,222.758 217.938,224.512 217.962 C 224.780 217.966,225.000 218.115,225.000 218.293 C 225.000 218.706,228.612 221.319,229.004 221.190 C 229.165 221.137,229.297 221.261,229.297 221.466 C 229.297 221.976,232.654 224.247,232.958 223.943 C 233.093 223.808,233.203 223.880,233.203 224.102 C 233.203 224.637,236.141 226.563,237.591 226.979 C 238.570 227.260,238.669 227.225,238.266 226.740 C 237.882 226.277,237.931 226.173,238.526 226.178 C 239.560 226.186,240.383 226.787,240.066 227.300 C 239.918 227.539,239.994 227.734,240.234 227.734 C 240.475 227.734,240.567 227.902,240.440 228.108 C 240.061 228.722,241.871 229.570,243.738 229.652 C 245.848 229.745,247.854 230.892,247.941 232.055 C 247.976 232.520,248.058 232.954,248.124 233.018 C 248.477 233.367,258.158 237.839,258.804 237.952 C 259.226 238.026,259.679 238.235,259.812 238.417 C 259.945 238.599,260.516 238.775,261.082 238.808 C 261.647 238.840,262.109 239.018,262.109 239.202 C 262.109 239.386,262.373 239.436,262.695 239.312 C 263.018 239.188,263.281 239.257,263.281 239.465 C 263.281 240.288,265.188 239.777,266.384 238.635 C 267.618 237.455,269.057 234.772,268.462 234.760 C 268.298 234.756,268.351 234.625,268.580 234.467 C 268.998 234.179,271.562 227.378,271.694 226.209 C 271.733 225.866,271.954 225.121,272.185 224.553 C 273.255 221.925,273.171 220.983,271.727 219.411 C 270.976 218.593,270.394 217.852,270.435 217.764 C 270.475 217.676,270.215 217.261,269.856 216.843 C 269.498 216.424,269.308 215.979,269.433 215.853 C 269.559 215.728,269.427 215.625,269.141 215.625 C 268.854 215.625,268.726 215.519,268.855 215.390 C 268.985 215.260,268.921 214.709,268.714 214.164 C 268.508 213.620,268.240 212.554,268.119 211.796 C 267.998 211.037,267.712 209.962,267.483 209.407 C 267.253 208.852,266.994 207.959,266.907 207.422 C 266.820 206.885,266.583 206.386,266.380 206.314 C 266.177 206.242,266.110 206.023,266.232 205.826 C 266.353 205.630,266.266 205.469,266.039 205.469 C 265.811 205.469,265.658 205.337,265.699 205.176 C 265.841 204.617,265.169 202.338,264.910 202.498 C 264.766 202.586,264.608 201.929,264.559 201.036 L 264.470 199.414 265.357 201.091 C 265.844 202.013,266.383 202.628,266.553 202.458 C 266.723 202.288,266.816 202.324,266.759 202.539 C 266.633 203.018,268.015 205.945,268.555 206.342 C 268.770 206.500,268.814 206.631,268.654 206.635 C 268.494 206.638,268.705 207.541,269.123 208.642 C 269.557 209.785,269.792 211.099,269.670 211.706 C 269.443 212.842,270.908 216.797,271.556 216.797 C 271.757 216.797,271.812 216.973,271.680 217.188 C 271.547 217.402,271.654 217.578,271.917 217.578 C 272.180 217.578,272.280 217.694,272.139 217.835 C 271.830 218.144,272.592 219.141,273.136 219.141 C 273.348 219.141,273.420 218.877,273.296 218.555 C 273.173 218.232,273.212 217.969,273.385 217.969 C 273.751 217.969,273.758 217.922,273.967 213.946 C 274.055 212.270,274.236 210.790,274.368 210.658 C 275.032 209.994,274.326 194.691,273.533 192.578 C 273.412 192.256,273.350 191.834,273.395 191.641 C 273.440 191.448,273.353 191.008,273.202 190.664 C 272.858 189.882,272.790 189.531,272.716 188.161 C 272.683 187.557,272.490 187.166,272.286 187.292 C 272.082 187.418,271.981 187.183,272.060 186.771 C 272.208 186.005,271.181 181.994,270.748 181.641 C 270.616 181.533,270.502 181.270,270.496 181.055 C 270.463 179.989,269.815 178.125,269.477 178.125 C 269.267 178.125,269.203 177.949,269.336 177.734 C 269.469 177.520,269.391 177.344,269.164 177.344 C 268.936 177.344,268.750 177.520,268.750 177.734 M128.952 182.910 C 127.550 188.337,127.357 194.971,128.487 198.923 C 130.753 206.847,130.371 213.672,127.662 213.672 C 126.488 213.672,126.435 214.568,127.351 218.835 C 128.880 225.952,133.743 239.453,134.777 239.453 C 135.696 239.453,149.589 232.794,151.337 231.515 C 152.796 230.449,148.624 226.162,141.757 221.671 C 134.148 216.694,133.597 215.937,133.595 210.449 C 133.594 206.014,133.713 205.937,136.158 208.799 C 138.010 210.966,138.417 212.208,136.674 210.371 C 135.392 209.020,134.765 209.110,134.769 210.645 C 134.779 213.862,139.153 218.721,144.051 220.953 C 145.712 221.710,147.334 222.465,147.656 222.631 C 147.979 222.797,148.857 223.996,149.609 225.296 C 150.361 226.596,151.561 228.312,152.275 229.110 L 153.573 230.561 154.950 229.831 C 156.598 228.958,157.422 227.892,157.422 226.634 C 157.422 226.124,157.723 225.196,158.092 224.572 C 159.165 222.756,158.163 222.044,154.696 222.161 C 152.036 222.250,152.002 222.239,151.881 221.197 C 151.786 220.387,151.464 220.058,150.488 219.780 C 149.176 219.406,148.755 218.750,149.828 218.750 C 150.163 218.750,150.336 218.586,150.212 218.386 C 150.088 218.186,150.166 217.912,150.384 217.777 C 151.449 217.119,150.597 216.486,147.826 215.877 C 143.325 214.888,142.577 214.391,142.582 212.392 C 142.604 203.905,150.229 200.365,155.909 206.206 C 158.445 208.814,158.447 208.818,157.620 210.405 C 157.299 211.020,157.032 211.875,157.028 212.305 C 157.014 213.532,156.458 214.119,155.031 214.409 C 153.584 214.703,153.051 215.925,154.019 216.729 C 154.443 217.080,154.758 216.967,155.473 216.206 C 156.508 215.105,157.341 214.959,157.671 215.820 C 157.795 216.143,158.287 216.406,158.765 216.406 C 159.242 216.406,160.410 217.107,161.359 217.963 C 163.202 219.625,164.072 219.875,164.830 218.962 C 165.515 218.137,165.011 217.614,163.259 217.334 C 162.146 217.156,161.719 216.898,161.719 216.404 C 161.719 215.345,160.796 214.814,159.431 215.086 C 157.987 215.375,157.824 214.612,158.752 211.914 C 159.350 210.175,159.045 202.968,158.298 201.172 C 157.831 200.051,156.394 198.688,153.985 197.081 C 153.061 196.465,150.600 194.466,148.516 192.639 C 142.993 187.796,132.029 180.859,129.898 180.859 C 129.669 180.859,129.243 181.782,128.952 182.910 M256.697 184.431 C 255.428 184.900,253.767 186.260,253.672 186.907 C 253.589 187.473,254.456 187.319,255.381 186.602 C 256.034 186.096,256.066 186.140,257.111 189.047 C 258.181 192.024,258.630 192.259,260.150 190.632 L 261.303 189.398 260.287 187.863 C 259.728 187.019,259.119 186.328,258.932 186.328 C 258.746 186.328,258.588 186.108,258.581 185.840 C 258.554 184.767,257.639 184.082,256.697 184.431 M126.215 205.430 L 126.234 213.335 127.073 212.778 C 128.683 211.709,128.914 205.423,127.523 200.544 C 126.387 196.561,126.195 197.278,126.215 205.430 M132.169 201.074 C 133.323 203.369,133.746 204.689,133.327 204.683 C 132.963 204.678,130.469 200.274,130.469 199.637 C 130.469 198.649,131.306 199.357,132.169 201.074 M279.443 204.492 C 279.444 206.855,279.508 207.772,279.586 206.529 C 279.664 205.286,279.663 203.352,279.584 202.232 C 279.506 201.112,279.442 202.129,279.443 204.492 M120.039 203.516 C 120.039 204.697,120.112 205.181,120.202 204.590 C 120.291 203.999,120.291 203.032,120.202 202.441 C 120.112 201.851,120.039 202.334,120.039 203.516 M168.149 219.549 C 167.728 219.709,166.855 220.402,166.211 221.088 C 164.748 222.646,163.261 223.438,161.801 223.438 C 160.579 223.438,159.583 224.850,160.013 225.972 C 160.344 226.835,160.518 226.766,163.903 224.439 C 165.602 223.272,167.733 221.822,168.638 221.217 C 170.755 219.803,170.427 218.682,168.149 219.549 M185.784 232.811 C 185.162 233.208,184.547 233.679,184.417 233.857 C 184.286 234.034,183.564 234.522,182.813 234.941 C 177.996 237.621,166.797 245.367,166.797 246.018 C 166.797 247.011,169.547 250.907,172.090 253.516 C 175.386 256.897,175.951 258.529,176.047 264.943 C 176.111 269.182,176.309 270.913,176.984 273.146 C 177.455 274.703,177.884 276.156,177.937 276.376 C 178.108 277.089,186.401 278.898,192.201 279.488 C 208.289 281.124,219.988 279.181,232.446 272.804 C 235.473 271.254,235.951 270.894,235.118 270.789 C 234.463 270.708,232.665 271.421,230.040 272.803 C 221.120 277.502,208.628 279.851,199.922 278.467 C 198.783 278.286,197.148 278.028,196.289 277.895 C 195.430 277.761,194.463 277.602,194.141 277.541 C 193.818 277.481,192.118 277.304,190.362 277.148 C 187.340 276.881,184.766 275.287,184.766 273.684 C 184.766 273.449,188.576 271.143,191.247 269.761 C 192.342 269.195,193.415 268.341,193.632 267.862 C 193.849 267.384,194.401 266.157,194.860 265.137 C 195.521 263.663,195.888 263.281,196.639 263.281 C 198.654 263.281,201.648 260.171,202.886 256.791 C 203.506 255.097,204.868 252.000,205.913 249.909 C 208.757 244.218,208.577 243.706,203.075 241.846 C 197.617 240.001,196.748 239.378,194.926 235.999 C 193.414 233.195,188.088 231.338,185.784 232.811 M154.223 251.819 L 145.361 256.301 147.388 258.131 C 154.866 264.879,172.460 276.107,173.667 274.901 C 173.758 274.810,173.568 272.227,173.244 269.162 C 172.921 266.096,172.654 262.333,172.650 260.798 C 172.643 257.341,172.147 256.320,169.868 255.078 C 167.845 253.976,166.737 252.755,164.818 249.512 C 164.087 248.276,163.399 247.281,163.288 247.301 C 163.177 247.320,159.098 249.353,154.223 251.819 M242.401 255.272 C 240.717 257.244,240.575 257.571,240.660 259.276 C 240.711 260.297,240.613 261.562,240.443 262.086 C 240.274 262.610,240.102 263.929,240.062 265.016 C 240.023 266.103,239.851 267.300,239.680 267.676 C 238.892 269.412,241.862 267.801,245.734 264.394 C 247.113 263.179,249.335 261.288,250.670 260.191 C 253.669 257.728,253.643 257.662,248.714 255.156 C 243.890 252.705,244.606 252.691,242.401 255.272 M276.079 259.651 C 276.565 259.745,277.268 259.741,277.641 259.643 C 278.015 259.546,277.617 259.469,276.758 259.474 C 275.898 259.478,275.593 259.558,276.079 259.651 " stroke="none" fill="#1aa965" fill-rule="evenodd"></path><path id="path2" d="M0.000 200.000 L 0.000 400.000 200.000 400.000 L 400.000 400.000 400.000 200.000 L 400.000 0.000 200.000 0.000 L 0.000 0.000 0.000 200.000 M203.516 59.362 C 214.092 61.344,225.081 74.891,227.736 89.219 C 228.305 92.287,228.074 97.632,227.161 102.539 C 226.842 104.258,226.482 106.191,226.362 106.836 C 225.982 108.878,225.343 110.547,224.943 110.547 C 224.729 110.547,221.769 110.025,218.365 109.388 C 205.249 106.932,192.954 106.930,181.377 109.381 C 179.266 109.827,177.059 110.294,176.473 110.417 C 175.052 110.716,174.977 110.516,172.810 100.586 C 172.307 98.278,172.194 90.978,172.632 89.036 C 176.863 70.290,190.729 56.967,203.516 59.362 M212.187 113.241 C 214.056 113.470,216.956 113.943,218.632 114.293 C 220.308 114.643,222.207 115.014,222.852 115.117 C 223.496 115.220,226.625 116.159,229.804 117.205 C 250.405 123.980,266.421 136.209,278.193 154.149 L 280.018 156.931 286.786 157.147 C 294.155 157.381,294.523 157.427,300.027 158.807 C 316.450 162.923,329.464 174.251,334.597 188.898 C 335.229 190.701,335.510 190.995,337.666 192.115 C 348.158 197.562,348.501 212.908,338.231 217.379 C 337.292 217.788,336.482 218.144,336.432 218.170 C 336.381 218.196,335.816 219.981,335.176 222.137 C 329.656 240.717,311.631 256.009,291.985 258.779 C 290.915 258.930,289.600 259.124,289.063 259.210 C 288.525 259.296,285.164 259.482,281.592 259.624 L 275.098 259.881 270.971 265.047 C 246.937 295.132,205.820 306.666,169.336 293.557 C 153.516 287.872,135.228 274.592,126.758 262.639 L 124.805 259.882 117.969 259.651 C 114.209 259.524,110.166 259.243,108.984 259.026 C 107.803 258.809,106.309 258.554,105.664 258.460 C 87.188 255.763,67.353 237.121,64.593 219.858 C 64.379 218.522,64.148 218.277,62.307 217.434 C 51.609 212.536,51.639 197.158,62.355 192.113 C 64.727 190.996,64.760 190.959,65.781 188.159 C 72.574 169.533,91.854 157.037,113.812 157.029 L 120.117 157.027 123.012 152.662 C 141.677 124.520,176.941 108.931,212.187 113.241 M131.370 116.043 C 136.442 117.334,145.783 122.351,145.681 123.730 C 145.669 123.891,144.571 124.724,143.240 125.580 C 134.911 130.938,124.556 141.498,119.006 150.293 L 117.959 151.953 114.741 151.960 C 102.473 151.986,88.441 156.431,76.058 164.215 L 72.624 166.373 72.175 165.386 C 71.078 162.980,73.320 152.944,76.260 147.100 C 87.434 124.883,111.907 111.092,131.370 116.043 M282.762 115.457 C 303.617 118.536,324.072 138.141,327.934 158.755 C 329.406 166.607,328.636 167.384,322.856 163.879 C 310.082 156.133,297.022 151.953,285.592 151.953 L 282.146 151.953 280.393 149.316 C 274.265 140.101,264.223 130.021,256.528 125.361 C 253.872 123.752,253.885 123.827,255.957 122.131 C 262.915 116.439,272.778 113.983,282.762 115.457 M192.578 125.654 C 170.040 127.735,147.707 140.323,134.975 158.122 C 134.162 159.259,133.562 160.250,133.643 160.325 C 133.723 160.399,137.305 162.200,141.602 164.327 C 150.174 168.570,157.067 172.899,164.258 178.555 C 172.394 184.955,182.950 192.638,192.477 199.093 L 198.465 203.151 200.893 201.389 C 221.617 186.347,230.873 180.041,241.211 173.922 C 243.789 172.396,247.568 169.902,249.609 168.382 C 253.401 165.556,260.288 161.878,263.965 160.715 C 266.475 159.921,266.478 160.102,263.889 156.493 C 252.222 140.231,230.318 127.898,209.375 125.796 C 207.712 125.630,194.092 125.514,192.578 125.654 M207.088 133.020 C 209.967 135.045,211.072 137.326,211.260 141.628 C 211.491 146.914,210.540 148.780,207.318 149.364 C 204.512 149.873,198.848 155.962,198.279 159.080 C 197.989 160.670,196.175 163.018,195.847 162.229 C 195.740 161.972,195.428 161.849,195.154 161.954 C 194.357 162.260,191.966 159.286,191.058 156.859 C 190.599 155.634,189.787 153.988,189.253 153.201 C 188.018 151.385,188.026 150.781,189.284 150.781 C 190.368 150.781,190.351 149.718,189.246 148.438 C 188.968 148.115,188.314 146.885,187.793 145.703 C 186.364 142.464,185.997 142.276,183.085 143.295 C 179.178 144.662,177.118 144.815,176.842 143.758 C 176.499 142.448,176.845 141.958,178.636 141.218 C 181.549 140.013,182.585 139.378,184.375 137.697 C 186.536 135.668,189.182 133.871,191.891 132.590 C 195.200 131.026,204.633 131.293,207.088 133.020 M187.109 132.763 C 187.109 133.541,181.095 138.739,178.931 139.831 C 176.111 141.255,175.691 141.898,176.232 143.971 C 176.453 144.816,176.756 146.412,176.907 147.518 C 177.232 149.908,177.857 150.780,179.247 150.786 C 180.281 150.791,183.594 153.454,183.594 154.280 C 183.594 155.141,180.758 157.813,179.845 157.813 C 177.102 157.813,175.190 156.139,173.819 152.539 C 173.027 150.458,171.762 150.284,169.372 151.928 C 168.416 152.586,167.390 153.125,167.094 153.125 C 165.735 153.125,165.066 154.119,165.758 155.108 C 167.254 157.243,165.928 159.396,164.158 157.706 L 163.024 156.622 160.977 158.975 C 159.852 160.269,158.652 161.328,158.311 161.328 C 157.391 161.328,158.665 162.635,161.399 164.497 C 162.944 165.549,163.769 166.424,164.113 167.374 C 165.765 171.943,169.904 168.520,169.320 163.068 C 168.953 159.648,171.403 158.301,172.624 161.251 C 173.245 162.750,175.049 163.373,177.291 162.864 C 179.954 162.258,181.250 163.217,181.250 165.793 C 181.250 166.783,182.984 168.536,186.043 170.641 C 191.086 174.111,192.570 178.523,189.173 179.943 C 187.240 180.751,181.925 180.638,183.105 179.815 C 183.589 179.477,183.984 178.983,183.984 178.716 C 183.984 177.977,179.889 175.391,178.719 175.391 C 178.644 175.391,178.142 176.179,177.603 177.144 L 176.623 178.896 178.379 179.673 C 180.465 180.596,180.364 180.883,177.484 182.201 C 174.265 183.675,174.844 183.989,159.729 172.568 C 151.781 166.562,147.381 163.543,142.400 160.679 C 140.994 159.870,139.844 159.098,139.844 158.963 C 139.844 157.925,151.808 145.703,152.825 145.703 C 153.326 145.703,153.150 148.137,152.518 149.952 C 152.191 150.893,152.009 151.749,152.115 151.854 C 152.540 152.280,153.516 150.762,153.516 149.674 C 153.516 147.525,155.639 143.524,157.494 142.178 C 160.691 139.858,171.863 135.014,172.514 135.665 C 173.073 136.224,170.774 138.715,169.141 139.318 C 160.844 142.382,158.984 143.302,158.984 144.342 C 158.984 144.846,159.161 144.819,160.059 144.176 C 161.136 143.405,164.380 142.375,164.706 142.701 C 164.802 142.796,164.257 143.536,163.495 144.344 C 162.212 145.704,161.626 146.829,162.474 146.305 C 162.933 146.022,165.625 148.753,165.625 149.502 C 165.625 149.864,165.293 150.012,164.666 149.930 C 164.139 149.861,163.656 149.980,163.592 150.195 C 163.355 150.997,165.839 150.843,166.593 150.009 C 167.317 149.210,167.307 149.179,165.875 147.712 C 164.025 145.817,164.326 144.572,166.941 143.301 C 169.614 142.003,171.152 143.927,169.348 146.312 C 168.623 147.271,168.606 147.656,169.289 147.656 C 169.894 147.656,170.524 146.230,170.887 144.043 C 171.040 143.116,171.342 142.578,171.710 142.578 C 172.392 142.578,172.842 141.632,172.457 141.009 C 172.271 140.709,171.966 140.775,171.470 141.224 C 170.801 141.829,169.922 141.739,169.922 141.065 C 169.922 140.903,170.514 140.488,171.237 140.143 C 171.960 139.798,173.586 138.356,174.850 136.938 C 176.548 135.033,177.556 134.245,178.711 133.919 C 183.387 132.599,187.109 132.087,187.109 132.763 M242.302 143.257 C 247.509 146.712,260.085 158.477,259.309 159.167 C 259.238 159.230,258.247 159.750,257.107 160.322 C 255.966 160.895,252.822 162.855,250.119 164.677 C 247.416 166.500,245.165 167.942,245.118 167.882 C 244.557 167.171,244.696 164.816,245.333 164.239 C 246.269 163.392,245.912 162.754,244.676 163.064 C 243.645 163.323,242.582 162.874,240.890 161.467 C 240.009 160.735,239.632 160.632,239.019 160.961 C 238.032 161.489,236.797 161.106,235.463 159.857 C 234.283 158.753,234.363 158.203,235.703 158.203 C 236.442 158.203,236.784 157.732,237.702 155.451 C 238.824 152.665,239.638 151.524,241.406 150.260 L 242.383 149.561 241.016 148.372 C 240.264 147.718,238.472 146.419,237.035 145.484 C 233.318 143.068,232.513 140.806,235.058 139.930 C 236.378 139.476,237.116 139.815,242.302 143.257 M216.170 151.547 C 217.772 152.156,218.750 153.392,218.750 154.808 C 218.750 158.412,215.151 158.353,213.297 154.718 C 212.244 152.655,212.269 151.661,213.379 151.448 C 214.904 151.154,215.160 151.163,216.170 151.547 M244.396 155.792 C 243.514 156.768,243.577 156.959,244.824 157.103 C 245.976 157.235,246.227 158.662,245.494 160.912 L 245.183 161.864 246.382 161.010 C 247.738 160.045,248.460 159.944,249.141 160.625 C 249.505 160.990,249.619 160.968,249.654 160.527 C 249.912 157.277,246.133 153.874,244.396 155.792 M232.542 165.728 C 233.335 167.081,233.480 167.738,233.312 169.226 C 233.002 171.975,233.316 172.494,234.678 171.487 C 235.670 170.754,235.969 170.718,237.809 171.113 C 240.316 171.650,240.334 171.515,237.457 173.634 C 234.455 175.843,234.392 175.838,232.659 173.228 C 231.189 171.015,230.802 170.899,229.747 172.362 C 229.092 173.270,227.526 173.131,227.572 172.168 C 227.590 171.792,227.633 170.518,227.669 169.336 C 227.740 167.009,228.662 166.272,229.136 168.164 C 229.435 169.354,230.470 169.437,231.453 168.351 C 232.130 167.603,232.133 167.488,231.514 166.189 C 230.252 163.544,231.052 163.185,232.542 165.728 M105.469 171.481 C 94.049 173.637,85.116 179.772,79.296 189.454 L 77.370 192.659 79.423 194.536 C 86.610 201.104,85.587 211.841,77.262 217.227 C 77.058 217.360,77.420 218.812,78.091 220.548 C 83.544 234.664,96.967 244.212,113.249 245.555 C 116.001 245.782,116.497 245.737,116.289 245.276 C 106.641 223.890,104.754 199.087,111.162 177.896 L 112.118 174.737 115.213 175.409 C 119.314 176.299,123.733 177.655,124.014 178.110 C 124.139 178.311,123.734 180.550,123.116 183.086 C 118.715 201.124,119.570 217.455,125.769 233.756 C 127.364 237.951,129.151 241.754,130.155 243.088 C 131.492 244.866,150.568 236.217,161.719 228.776 C 164.605 226.850,183.102 213.819,183.711 213.283 C 184.042 212.992,179.479 209.536,164.453 198.697 C 159.404 195.055,152.285 189.835,148.633 187.097 C 130.016 173.143,118.579 169.006,105.469 171.481 M287.031 170.969 C 286.433 171.126,286.485 171.467,287.546 174.341 C 295.116 194.849,293.839 222.220,284.328 243.316 L 283.203 245.811 286.168 245.542 C 302.329 244.078,316.129 234.538,321.995 220.775 C 323.333 217.637,323.321 217.476,321.687 216.359 C 314.858 211.691,314.271 201.303,320.486 195.088 L 322.650 192.924 321.817 191.286 C 317.644 183.081,309.454 176.114,300.351 173.028 C 295.961 171.540,288.968 170.459,287.031 170.969 M270.414 173.807 C 265.038 175.754,258.999 179.320,251.172 185.168 C 248.486 187.174,241.631 191.907,235.938 195.686 C 230.244 199.464,224.531 203.331,223.242 204.279 C 216.303 209.383,212.110 212.607,212.119 212.832 C 212.145 213.570,231.390 226.699,239.844 231.747 C 249.908 237.756,267.388 245.568,268.808 244.691 C 269.754 244.106,274.209 233.857,275.923 228.320 C 280.776 212.644,280.398 193.734,274.900 177.151 C 273.452 172.784,273.381 172.732,270.414 173.807 M270.238 179.590 C 273.397 188.437,274.379 194.221,274.398 204.102 C 274.421 215.902,273.899 219.944,272.502 218.784 C 271.359 217.835,269.531 213.613,269.531 211.920 C 269.531 209.766,267.931 205.146,266.429 202.962 C 265.766 201.999,265.061 200.806,264.863 200.312 C 264.618 199.702,264.495 199.621,264.478 200.058 C 264.464 200.413,265.081 202.328,265.848 204.314 C 266.615 206.299,267.593 209.336,268.023 211.062 C 268.897 214.572,269.767 216.484,271.774 219.305 L 273.141 221.227 272.658 223.407 C 271.716 227.656,267.023 239.809,266.519 239.306 C 266.384 239.171,265.966 239.340,265.589 239.681 C 264.266 240.878,247.353 233.704,247.553 232.031 C 247.689 230.895,245.882 229.884,243.704 229.878 C 241.658 229.872,240.602 229.174,239.832 227.316 C 239.531 226.590,239.073 226.172,238.577 226.172 C 237.926 226.172,237.877 226.270,238.281 226.758 C 240.256 229.138,232.372 224.395,225.816 219.260 C 221.864 216.164,221.913 216.286,222.955 212.212 C 223.437 210.329,223.830 208.432,223.829 207.995 C 223.826 206.174,249.217 188.997,250.034 190.267 C 250.640 191.210,250.251 191.903,248.828 192.416 C 247.499 192.896,247.491 192.910,248.550 192.939 C 249.402 192.962,249.870 193.343,250.699 194.688 C 251.466 195.934,252.148 196.526,253.170 196.837 C 255.447 197.528,256.170 197.356,257.973 195.693 L 259.679 194.121 261.484 194.603 C 263.053 195.023,263.437 194.999,264.419 194.418 C 265.041 194.051,265.831 193.750,266.174 193.750 C 267.047 193.750,266.961 193.454,265.658 191.970 C 265.031 191.256,264.372 190.438,264.193 190.152 C 264.014 189.866,263.391 189.423,262.809 189.168 C 262.227 188.912,261.402 188.020,260.976 187.185 C 260.550 186.350,259.752 185.372,259.202 185.012 C 257.103 183.636,258.735 182.015,265.352 178.907 C 269.458 176.979,269.298 176.957,270.238 179.590 M137.411 184.442 C 141.553 186.940,146.430 190.543,149.432 193.322 C 150.731 194.524,152.577 196.025,153.534 196.658 C 158.973 200.253,160.888 205.966,158.754 212.229 C 157.946 214.602,158.136 215.039,159.973 215.039 C 161.255 215.039,161.516 215.184,161.713 216.006 C 161.897 216.772,162.293 217.042,163.613 217.303 C 165.026 217.583,165.263 217.764,165.160 218.485 C 164.944 220.001,163.237 219.790,161.157 217.990 C 160.151 217.119,158.987 216.406,158.570 216.406 C 158.153 216.406,157.813 216.249,157.813 216.057 C 157.813 215.166,156.451 215.270,155.440 216.238 L 154.367 217.267 153.679 216.217 C 152.948 215.102,153.313 214.473,154.698 214.459 C 155.813 214.448,157.031 213.268,157.045 212.185 C 157.053 211.606,157.310 210.693,157.617 210.156 C 158.400 208.786,158.471 208.932,155.633 206.038 L 153.063 203.417 150.180 203.602 C 145.393 203.909,142.578 207.146,142.578 212.343 C 142.578 214.269,142.975 214.526,147.694 215.654 C 151.718 216.615,152.455 216.975,151.211 217.370 C 150.760 217.514,150.391 217.883,150.391 218.190 C 150.391 218.498,150.127 218.750,149.805 218.750 C 148.763 218.750,149.183 219.359,150.488 219.743 C 151.471 220.033,151.786 220.361,151.882 221.200 C 152.006 222.276,152.019 222.281,154.270 222.041 C 157.566 221.689,159.249 222.573,158.402 224.211 C 158.078 224.839,157.812 225.668,157.811 226.055 C 157.808 227.289,156.301 229.285,154.848 229.978 L 153.440 230.650 151.930 228.899 C 151.100 227.936,149.892 226.168,149.246 224.969 C 148.155 222.943,147.886 222.716,145.423 221.744 C 140.063 219.630,135.555 215.156,134.821 211.223 C 134.394 208.934,134.840 208.535,136.284 209.918 C 138.125 211.682,138.027 211.027,136.116 208.789 C 133.622 205.870,133.501 205.965,133.656 210.707 C 133.839 216.287,134.282 216.808,144.161 223.047 C 146.676 224.635,151.093 228.863,151.993 230.545 C 152.289 231.097,151.812 231.499,149.123 232.964 C 145.670 234.845,134.706 239.914,134.511 239.719 C 131.661 236.869,125.213 213.672,127.270 213.672 C 130.066 213.672,130.572 206.353,128.308 198.655 C 127.052 194.382,127.792 183.611,129.535 180.790 C 129.782 180.390,133.718 182.215,137.411 184.442 M259.581 186.734 L 261.477 189.484 260.266 190.696 C 258.663 192.298,258.092 191.990,256.995 188.930 L 256.085 186.393 254.984 186.963 C 254.379 187.276,253.728 187.436,253.538 187.318 C 253.347 187.201,253.124 187.308,253.041 187.556 C 252.958 187.805,252.666 187.933,252.391 187.841 C 251.873 187.669,256.509 184.003,257.260 183.991 C 257.494 183.987,258.538 185.222,259.581 186.734 M127.593 200.293 C 129.060 205.614,128.433 213.281,126.531 213.281 C 126.365 213.281,126.211 209.766,126.188 205.469 C 126.144 197.072,126.422 196.046,127.593 200.293 M130.687 199.572 C 130.426 199.995,133.127 204.894,133.446 204.575 C 133.609 204.412,131.960 200.608,131.318 199.665 C 131.063 199.291,130.878 199.264,130.687 199.572 M170.170 219.727 C 170.447 220.674,160.752 226.924,160.067 226.239 C 159.097 225.269,160.312 223.732,162.489 223.175 C 164.012 222.785,165.107 222.152,166.484 220.864 C 168.297 219.168,169.866 218.684,170.170 219.727 M190.218 227.470 C 186.038 230.118,179.014 234.578,174.609 237.381 C 162.914 244.825,142.736 255.469,140.322 255.469 C 135.896 255.469,146.897 266.859,157.889 273.659 C 190.796 294.015,228.847 289.790,255.566 262.815 C 260.833 257.498,260.848 257.460,258.105 256.486 C 247.921 252.869,230.295 243.594,217.052 234.882 C 209.975 230.226,198.128 222.656,197.919 222.656 C 197.864 222.656,194.399 224.823,190.218 227.470 M190.369 232.865 C 193.505 233.801,194.369 234.402,195.103 236.158 C 196.095 238.533,198.235 240.104,202.287 241.432 C 208.825 243.576,208.880 243.721,205.709 250.431 C 204.552 252.880,203.211 255.980,202.728 257.320 C 201.788 259.933,198.554 263.281,196.971 263.281 C 195.939 263.281,195.114 264.287,194.262 266.583 C 193.570 268.448,193.385 268.608,189.153 271.000 C 184.413 273.679,184.479 273.570,186.326 275.733 C 186.981 276.500,187.676 276.720,190.337 277.003 C 192.107 277.191,195.137 277.594,197.070 277.899 C 208.680 279.727,221.265 277.684,230.430 272.483 C 233.385 270.806,236.390 270.046,235.709 271.148 C 234.763 272.678,222.381 277.527,215.758 278.960 C 204.523 281.391,177.735 279.204,177.734 275.856 C 177.734 275.493,177.352 274.229,176.885 273.047 C 176.153 271.195,176.050 270.259,176.140 266.268 C 176.290 259.575,175.543 257.436,171.481 252.926 C 165.562 246.354,165.565 245.955,171.571 242.050 C 173.994 240.475,178.437 237.576,181.444 235.608 C 184.450 233.641,187.060 232.031,187.242 232.031 C 187.425 232.031,188.832 232.407,190.369 232.865 M164.667 249.121 C 166.350 252.042,168.312 254.267,169.726 254.857 C 172.081 255.841,172.656 256.746,172.659 259.473 C 172.661 260.815,172.823 263.408,173.019 265.234 C 173.216 267.061,173.489 269.864,173.627 271.464 C 173.765 273.064,173.965 274.514,174.071 274.687 C 175.051 276.273,164.896 271.189,158.344 266.814 C 153.847 263.812,145.604 257.080,145.619 256.422 C 145.626 256.090,162.325 247.418,163.146 247.320 C 163.395 247.290,164.079 248.101,164.667 249.121 M249.707 255.575 C 251.802 256.661,253.507 257.653,253.496 257.779 C 253.453 258.268,243.205 266.662,241.382 267.701 C 239.613 268.709,238.143 268.044,239.832 267.000 C 240.040 266.871,240.218 265.850,240.227 264.730 C 240.241 262.962,240.431 259.035,240.577 257.503 C 240.603 257.225,241.443 256.123,242.443 255.054 C 244.567 252.784,244.283 252.763,249.707 255.575 M129.296 272.460 C 133.855 278.369,145.920 287.655,155.255 292.439 C 157.199 293.435,158.851 294.302,158.927 294.366 C 159.003 294.429,158.182 296.119,157.103 298.120 C 155.201 301.646,152.776 307.379,151.377 311.657 C 150.007 315.848,147.992 317.270,144.169 316.744 L 141.659 316.398 138.701 318.323 C 132.579 322.306,127.438 321.987,122.785 317.333 C 121.630 316.179,120.620 315.234,120.540 315.234 C 120.459 315.234,119.052 315.872,117.411 316.651 C 112.090 319.178,108.850 317.426,107.279 311.170 C 104.160 298.752,111.694 281.695,124.609 271.939 C 127.322 269.890,127.312 269.889,129.296 272.460 M276.228 272.531 C 288.879 282.306,295.798 298.337,292.919 311.202 C 291.531 317.406,287.880 319.275,282.514 316.528 L 279.677 315.076 277.631 317.076 C 272.628 321.969,267.784 322.294,261.500 318.159 C 259.192 316.641,258.586 316.409,257.422 316.599 C 252.062 317.476,251.178 316.688,248.217 308.398 C 247.450 306.250,245.692 302.232,244.310 299.470 C 242.928 296.708,241.797 294.395,241.797 294.330 C 241.797 294.265,243.273 293.413,245.078 292.437 C 254.481 287.353,265.783 278.547,270.578 272.569 C 272.793 269.807,272.703 269.807,276.228 272.531 M199.414 303.711 C 204.141 303.711,208.861 303.580,209.904 303.420 L 211.800 303.129 211.574 305.568 C 210.562 316.492,202.948 324.727,197.165 321.152 C 193.037 318.601,189.568 312.616,188.866 306.836 C 188.736 305.762,188.549 304.491,188.450 304.013 C 188.285 303.212,188.373 303.165,189.546 303.427 C 190.247 303.583,194.688 303.711,199.414 303.711 " stroke="none" fill="#fbfbfb" fill-rule="evenodd"></path><path id="path3" d="M184.155 66.895 L 183.008 68.164 184.277 67.017 C 185.461 65.947,185.726 65.625,185.425 65.625 C 185.357 65.625,184.786 66.196,184.155 66.895 M196.562 112.791 C 198.431 112.862,201.595 112.862,203.594 112.791 C 205.592 112.720,204.063 112.662,200.195 112.661 C 196.328 112.661,194.693 112.719,196.562 112.791 M192.285 125.660 C 192.661 125.758,193.276 125.758,193.652 125.660 C 194.028 125.562,193.721 125.481,192.969 125.481 C 192.217 125.481,191.909 125.562,192.285 125.660 M266.016 139.258 C 267.183 140.439,268.225 141.406,268.333 141.406 C 268.440 141.406,267.573 140.439,266.406 139.258 C 265.239 138.076,264.197 137.109,264.089 137.109 C 263.982 137.109,264.849 138.076,266.016 139.258 M127.455 194.336 C 127.458 195.410,127.534 195.803,127.624 195.209 C 127.714 194.616,127.711 193.737,127.619 193.256 C 127.526 192.776,127.453 193.262,127.455 194.336 M84.075 205.078 C 84.075 205.830,84.155 206.138,84.254 205.762 C 84.352 205.386,84.352 204.771,84.254 204.395 C 84.155 204.019,84.075 204.326,84.075 205.078 M159.113 206.445 C 159.114 207.949,159.185 208.517,159.269 207.706 C 159.354 206.896,159.353 205.665,159.266 204.972 C 159.180 204.278,159.111 204.941,159.113 206.445 M129.813 208.984 C 129.813 210.381,129.883 210.952,129.970 210.254 C 130.057 209.556,130.057 208.413,129.970 207.715 C 129.883 207.017,129.813 207.588,129.813 208.984 M107.520 210.352 C 107.525 211.211,107.605 211.517,107.698 211.031 C 107.792 210.545,107.788 209.842,107.690 209.468 C 107.592 209.095,107.516 209.492,107.520 210.352 M146.484 224.732 C 146.484 224.799,147.056 225.370,147.754 226.001 L 149.023 227.148 147.876 225.879 C 146.807 224.696,146.484 224.430,146.484 224.732 M122.563 259.651 C 123.049 259.745,123.752 259.741,124.126 259.643 C 124.499 259.546,124.102 259.469,123.242 259.474 C 122.383 259.478,122.077 259.558,122.563 259.651 M144.922 263.867 C 145.651 264.619,146.335 265.234,146.442 265.234 C 146.550 265.234,146.041 264.619,145.313 263.867 C 144.584 263.115,143.899 262.500,143.792 262.500 C 143.685 262.500,144.193 263.115,144.922 263.867 M266.577 270.020 L 265.430 271.289 266.699 270.142 C 267.397 269.511,267.969 268.939,267.969 268.872 C 267.969 268.570,267.646 268.836,266.577 270.020 M263.452 273.145 L 262.305 274.414 263.574 273.267 C 264.272 272.636,264.844 272.064,264.844 271.997 C 264.844 271.695,264.521 271.961,263.452 273.145 M194.629 279.957 C 195.005 280.055,195.620 280.055,195.996 279.957 C 196.372 279.859,196.064 279.778,195.313 279.778 C 194.561 279.778,194.253 279.859,194.629 279.957 M191.895 298.707 C 192.271 298.805,192.886 298.805,193.262 298.707 C 193.638 298.609,193.330 298.528,192.578 298.528 C 191.826 298.528,191.519 298.609,191.895 298.707 " stroke="none" fill="#97c1bd" fill-rule="evenodd"></path></g></svg>