<svg version="1.2" xmlns="http://www.w3.org/2000/svg" viewBox="0 0 1024 1024" width="1024" height="1024">
	<style>
		.s0 { fill: #fafcfb } 
		.s1 { fill: #053d51 } 
		.s2 { fill: #18a555 } 
		.s3 { fill: #13a3bb } 
	</style>
	<g id="Background">
		<path id="Path 0" class="s0" d="m0 512v512h1024v-1024h-1024z"/>
		<path id="Path 1" class="s1" d="m536 777.16c-2.48 0.52-15.41 0.81-28.75 0.64-23.68-0.29-24.25-0.25-24.26 1.7 0 1.1 0.46 4.7 1.04 8 0.57 3.3 1.76 8.03 2.66 10.5 0.89 2.48 3.17 6.98 5.07 10 1.9 3.03 4.87 7 6.59 8.84 1.73 1.83 4.84 4.2 6.9 5.25 2.06 1.05 5.32 1.91 7.25 1.91 1.92 0 5.19-0.84 7.25-1.87 2.06-1.03 5.77-4.1 8.25-6.83 2.48-2.72 5.71-7.39 7.18-10.38 1.47-2.98 3.38-8.12 4.24-11.42 0.86-3.3 1.8-8.59 2.09-11.75 0.29-3.16 0.18-5.7-0.24-5.64-0.42 0.06-2.79 0.53-5.27 1.05z"/>
		<path id="Path 2" class="s1" d="m693 697.62c-2.48 3.04-8.77 9.47-14 14.28-5.23 4.81-13.1 11.46-17.5 14.79-4.4 3.32-11.38 8.3-15.5 11.06-4.13 2.76-11.89 7.32-17.25 10.13-5.36 2.82-9.75 5.35-9.75 5.62 0 0.27 2.22 4.66 4.93 9.75 2.7 5.09 6.46 13.08 8.34 17.75 1.88 4.67 4.61 11.87 6.06 16 1.62 4.61 3.9 8.8 5.9 10.88l3.27 3.38 15.5-1.26c12.91 8.37 17.34 10.4 21 11.12 3.02 0.59 7.08 0.76 9 0.39 1.92-0.37 5.41-1.53 7.75-2.59 2.34-1.06 6.75-4.28 9.81-7.17l5.57-5.25c11.07 5.76 14.77 6.97 17.44 6.98 2.79 0.01 5.39-0.85 8.25-2.73 3.27-2.15 4.61-3.94 6.18-8.25 1.1-3.02 2.43-9.44 2.96-14.25 0.6-5.42 0.62-11.41 0.05-15.75-0.5-3.85-2.08-11.05-3.51-16-1.43-4.95-4.55-13.05-6.94-18-2.39-4.95-7.02-12.6-10.29-17-3.27-4.4-8.84-10.77-12.36-14.16-3.53-3.38-7.76-7.24-9.41-8.56-1.65-1.33-4.58-3.38-6.5-4.56-1.92-1.19-3.73-2.15-4-2.14-0.27 0.01-2.52 2.5-5 5.54z"/>
		<path id="Path 3" class="s1" d="m317.32 697.89c-4.3 3.24-10.32 8.53-13.37 11.75-3.05 3.22-7.62 8.78-10.16 12.36-2.53 3.58-6.41 9.88-8.61 14-2.2 4.13-5.35 11.77-7.01 17-1.66 5.23-3.56 12.65-4.23 16.5-0.72 4.15-0.98 10.67-0.64 16 0.31 4.97 1.49 11.69 2.63 15 1.13 3.3 3.07 7.03 4.31 8.28 1.24 1.26 3.83 2.99 5.76 3.86q3.5 1.58 7 0.9c1.93-0.38 5.86-2 8.75-3.61 2.89-1.61 5.81-2.92 6.5-2.91 0.69 0.01 3.5 2.41 6.25 5.32 3.57 3.79 6.64 5.93 10.75 7.48 3.16 1.2 7.44 2.18 9.5 2.19 2.06 0.01 6-0.64 8.75-1.44 2.75-0.8 8.04-3.5 11.75-6.01l6.75-4.56 15.5 1.34c6.78-6.14 8.26-8.87 11.05-16.84 1.93-5.5 5.18-13.83 7.21-18.5 2.04-4.67 5.22-11.2 7.06-14.5 1.84-3.3 3.42-6.37 3.52-6.83 0.09-0.46-2.55-2.26-5.87-4-3.32-1.74-10.88-6.09-16.81-9.67-5.92-3.58-15.13-9.79-20.47-13.8-5.33-4.02-14.19-11.48-19.69-16.59-5.5-5.1-11.36-11.38-13.02-13.94-1.66-2.57-3.55-4.67-4.18-4.67-0.64 0-4.68 2.65-8.98 5.89z"/>
		<path id="Path 4" class="s1" d="m693.09 296.15c-4.72 0.9-11.29 2.6-14.59 3.77-3.3 1.16-9.15 3.93-13 6.14-3.85 2.21-8.74 5.46-10.87 7.23l-3.86 3.21c6.76 4.46 11.2 7.6 14.23 9.86 3.02 2.26 9.33 7.33 14 11.28 4.67 3.94 11.87 10.88 16 15.41 4.12 4.53 11.26 13.24 15.86 19.35 4.59 6.1 8.93 12.23 9.64 13.6 1.25 2.44 1.65 2.52 15.64 3.2 8.89 0.43 18.74 1.63 25.86 3.15 6.33 1.34 16 4.12 21.5 6.16 5.5 2.05 14.72 5.94 20.5 8.66 5.77 2.72 15.85 8.18 22.39 12.13 11.5 6.97 11.93 7.14 13.26 5.2 0.76-1.1 1.38-3.91 1.37-6.25-0.01-2.34-0.74-7.74-1.61-12-0.87-4.26-2.5-10.45-3.61-13.75-1.11-3.3-3.93-10.05-6.25-15-2.32-4.95-6.28-12.15-8.78-16-2.51-3.85-6-8.8-7.75-11-1.75-2.2-5.79-6.7-8.98-10-3.19-3.3-7.77-7.81-10.17-10.03-2.4-2.22-7.07-6.06-10.37-8.53-3.3-2.48-7.8-5.66-10-7.08-2.2-1.41-8.05-4.6-13-7.07-4.95-2.47-12.15-5.66-16-7.09-3.85-1.43-10.6-3.32-15-4.21-4.4-0.88-12.46-1.7-17.91-1.8-5.86-0.11-13.42 0.48-18.5 1.46z"/>
		<path id="Path 5" class="s1" d="m304 294.97c-3.57 0.46-10.1 1.76-14.5 2.88-4.4 1.13-11.15 3.33-15 4.89-3.85 1.56-10.82 4.91-15.5 7.45-4.68 2.53-12.1 7.27-16.5 10.52-4.4 3.26-10.7 8.41-14 11.46-3.3 3.05-9.18 9.32-13.07 13.94-3.88 4.61-9.73 12.66-12.98 17.89-3.25 5.22-7.36 12.87-9.14 17-1.77 4.12-4.36 11.77-5.74 17-1.39 5.22-2.81 11.75-3.17 14.5-0.35 2.75-0.36 6.69-0.02 8.75 0.34 2.06 0.96 3.75 1.37 3.76 0.41 0 5.03-2.53 10.25-5.62 5.22-3.1 14.34-8.05 20.25-11.01 5.91-2.96 13.56-6.44 17-7.75 3.44-1.3 11.2-3.76 17.25-5.47 6.05-1.7 15.27-3.79 20.5-4.63 5.23-0.84 14.23-1.51 20-1.5l10.5 0.02c7.75-11.21 12.88-18.09 16.39-22.51 3.52-4.42 10.04-11.79 14.5-16.38 4.46-4.58 11.93-11.59 16.61-15.57 4.68-3.98 12.1-9.63 16.5-12.56l8-5.31c-5.43-4.34-9.93-7.35-13.5-9.5-3.57-2.14-9.65-5.14-13.5-6.67-3.85-1.53-9.93-3.4-13.5-4.16-3.57-0.75-10.1-1.57-14.5-1.81-4.4-0.25-10.93-0.07-14.5 0.39z"/>
		<path id="Path 6" class="s1" d="m485 289.64c-1.93 0.24-8.9 1.32-15.5 2.4-6.6 1.09-18.07 3.8-25.5 6.04-7.43 2.24-18.23 6-24 8.37-5.77 2.36-14.77 6.44-20 9.06-5.23 2.62-12.43 6.59-16 8.81-3.57 2.22-11.45 7.72-17.5 12.22-6.05 4.5-15.96 13.08-22.03 19.07-6.07 5.99-13.73 14.27-17.03 18.39-3.3 4.13-6.79 8.63-7.75 10-0.96 1.38-3.98 5.99-6.72 10.25l-4.97 7.75c-28.5 0.02-34.96 0.51-42.5 2.03-5.5 1.1-12.93 2.96-16.5 4.12-3.57 1.16-11 4.22-16.5 6.78-5.5 2.57-13.26 6.79-17.25 9.37-3.99 2.59-10.74 7.77-15 11.52-4.26 3.75-10.97 11.06-14.9 16.25-3.94 5.19-8.95 12.81-11.14 16.93-2.2 4.13-5.05 10.33-6.35 13.78-2.25 5.99-2.63 6.41-8.36 9.16-3.3 1.59-7.95 4.84-10.33 7.22-2.38 2.39-5.53 6.82-7 9.84-2.35 4.85-2.67 6.69-2.66 15.5 0.01 9.53 0.18 10.3 3.5 16.39 1.92 3.51 5.29 7.98 7.49 9.94 2.2 1.95 6.36 4.59 9.25 5.86 4.91 2.16 5.29 2.59 5.89 6.56 0.35 2.34 1.86 7.85 3.36 12.25 1.49 4.4 4.41 11.38 6.49 15.5 2.08 4.13 5.6 10.2 7.83 13.5 2.22 3.3 6.77 9.09 10.11 12.86 3.34 3.77 9.67 9.88 14.07 13.58 4.4 3.69 11.38 8.79 15.5 11.33 4.13 2.54 11.78 6.64 17 9.11 5.22 2.47 13.55 5.67 18.5 7.1 4.95 1.43 13.27 3.33 18.5 4.23 5.91 1.01 15.66 1.66 25.77 1.71l16.27 0.08c9.77 13.17 17.3 21.75 23.03 27.56 5.74 5.81 12.45 12.29 14.93 14.4 2.48 2.11 7.88 6.4 12 9.54 4.13 3.14 11.77 8.51 17 11.93 5.23 3.43 15.8 9.32 23.5 13.1 7.7 3.77 20.98 9.18 29.5 12.02 8.52 2.84 19.77 5.98 25 6.99 5.23 1.01 10.85 2.08 12.5 2.38 1.65 0.29 8.63 1.06 15.5 1.7 7.47 0.7 19.75 0.93 30.5 0.59 9.9-0.32 22.27-1.3 27.5-2.19 5.23-0.88 13.1-2.52 17.5-3.64 4.4-1.12 12.5-3.56 18-5.42 5.5-1.86 14.27-5.22 19.5-7.46 5.23-2.25 13.33-6.17 18-8.73 4.67-2.55 13.45-7.99 19.5-12.09 6.05-4.09 13.25-9.29 16-11.56 2.75-2.26 8.38-7.24 12.5-11.06 4.13-3.82 10.58-10.35 14.34-14.5 3.76-4.16 9.46-10.93 12.67-15.06l5.84-7.5c25.3-1.06 36.7-2.08 41.65-2.95 4.95-0.87 13.95-3.02 20-4.77 6.06-1.75 15.94-5.67 22-8.73 6.05-3.06 15.05-8.26 20-11.55 4.95-3.29 13.27-10.26 18.5-15.49 5.23-5.23 11.82-12.88 14.65-17.01 2.83-4.12 6.94-11.1 9.14-15.5 2.19-4.4 5.38-12.39 7.1-17.75 1.71-5.36 3.11-10.42 3.11-11.25 0-0.84 2.51-2.69 5.75-4.21 3.16-1.5 7.34-4.31 9.28-6.25 1.95-1.95 4.87-6.24 6.5-9.54 2.29-4.62 3.05-7.72 3.34-13.5 0.27-5.3-0.13-9.11-1.38-13-0.97-3.02-3.22-7.52-4.99-10-1.78-2.48-4.53-5.64-6.12-7.02-1.58-1.39-5.36-3.72-8.38-5.18-5.16-2.48-5.65-3.04-7.9-8.97-1.32-3.48-4.07-9.7-6.12-13.83-2.05-4.12-6.43-11.1-9.74-15.5-3.3-4.4-9.55-11.39-13.87-15.53-4.33-4.15-10.57-9.37-13.87-11.62-3.3-2.24-9.83-6-14.5-8.34-4.67-2.34-10.75-5.15-13.5-6.24-2.75-1.1-7.92-2.8-11.5-3.79-3.58-0.99-10.33-2.6-15-3.58-6.05-1.28-13.16-1.81-24.68-1.85l-16.18-0.05c-9.17-13.95-15.45-22.5-19.89-28-4.43-5.5-12.71-14.52-18.4-20.03-5.69-5.52-13.5-12.55-17.35-15.61-3.85-3.07-11.27-8.37-16.5-11.79-5.23-3.42-15.8-9.31-23.5-13.1-7.7-3.8-18.95-8.73-25-10.98-6.05-2.24-16.17-5.38-22.5-6.97-6.33-1.59-15.55-3.65-20.5-4.58-6.77-1.26-15.95-1.75-37-1.95-15.4-0.16-29.57-0.09-31.5 0.15z"/>
		<path id="Path 7" class="s0" d="m500 573.72c-3.02 2-15.18 9.78-27 17.29-11.82 7.51-27.35 17.38-34.5 21.93-7.15 4.54-17.73 10.9-23.5 14.11-5.77 3.22-18.82 9.86-29 14.75-10.18 4.9-21.1 9.99-24.27 11.3-3.94 1.64-5.76 2.95-5.75 4.15 0.01 0.96 3.8 5.91 8.42 11 4.62 5.09 10.11 10.6 12.21 12.25 2.1 1.65 5.18 4.17 6.85 5.6 1.67 1.43 6.19 4.83 10.04 7.55 3.85 2.72 11.05 7.38 16 10.35 4.95 2.97 13.05 7.27 18 9.56 4.95 2.29 13.27 5.76 18.5 7.71 5.23 1.95 14 4.69 19.5 6.1 5.5 1.4 14.5 3.2 20 4 5.5 0.8 15.18 1.75 21.5 2.11 6.33 0.35 16.45 0.17 22.5-0.4 6.05-0.58 15.5-1.97 21-3.1 5.5-1.12 15.4-3.85 22-6.06 6.6-2.21 16.73-6.27 22.5-9.04 5.77-2.76 14.33-7.32 19-10.12 4.67-2.81 12.77-8.28 18-12.16 5.23-3.88 15.01-12.58 21.75-19.33 6.74-6.75 12.24-12.83 12.22-13.52-0.02-0.69-6.43-3.94-14.25-7.23-7.82-3.29-22.09-9.86-31.72-14.59-9.63-4.74-21.77-11.01-27-13.93-5.23-2.92-12.65-7.21-16.5-9.52-3.85-2.32-15.77-9.97-26.5-17-10.73-7.03-24.79-16.09-31.25-20.13-6.46-4.04-12.09-7.33-12.5-7.3-0.41 0.03-3.23 1.68-6.25 3.67z"/>
		<path id="Path 8" class="s2" d="m488.01 710.99c-0.01 0.56-2.15 1.3-4.76 1.65-4.04 0.55-4.41 0.78-2.5 1.5 1.24 0.47 7.99 1.31 15 1.86 7.01 0.56 17.7 0.97 23.75 0.92 6.05-0.05 13.25-0.45 16-0.87 2.75-0.43 4.33-0.85 3.5-0.93-1.33-0.13-1.33-0.26 0-1.17 1.05-0.71-2.27-0.95-11-0.8-6.87 0.11-16.1-0.3-20.5-0.93-4.4-0.62-10.58-1.38-13.74-1.68-3.56-0.35-5.74-0.17-5.75 0.45z"/>
		<path id="Path 9" class="s3" d="m479.05 709.66c-0.8 0.28-1.35 1.26-1.23 2.17 0.19 1.46 0.85 1.54 5.22 0.67 2.83-0.57 4.99-1.54 4.98-2.25-0.01-0.79-1.41-1.22-3.77-1.17-2.06 0.04-4.4 0.3-5.2 0.58zm108.46-10.85c-6.05 3.13-11.11 6.03-11.25 6.44-0.15 0.41-1.35 0.75-2.69 0.75-1.33 0-3.13 0.67-4 1.5-0.86 0.83-1.68 1.32-1.82 1.1-0.14-0.22-4.08 0.44-8.75 1.47-4.67 1.04-9.85 1.89-11.5 1.89-1.65 0-4.58 0.52-6.5 1.14-2.67 0.87-3.14 1.34-2 1.98 0.83 0.46 2.4 0.65 3.5 0.43 1.1-0.23 5.83-1.13 10.5-2 4.67-0.88 11.42-2.54 15-3.69 3.58-1.15 6.95-2.41 7.5-2.82 0.55-0.4 2.35-1.05 4-1.45 1.65-0.39 7.5-2.97 13-5.72 5.5-2.76 10.23-5.32 10.51-5.71 0.29-0.38-0.61-0.76-2-0.85-1.38-0.08-7.46 2.41-13.5 5.54z"/>
		<path id="Path 10" class="s2" d="m622.92 650.53c-1.33 1.38-2.08 2.51-1.67 2.5 0.41-0.02-0.6 1.1-2.25 2.47-2.74 2.29-3.04 3.16-3.52 10.25-0.29 4.26-0.66 10-0.81 12.75-0.16 2.75-0.6 5.79-0.98 6.75-0.38 0.96-0.24 1.75 0.31 1.75 0.55 0 2.35-0.67 4-1.5 1.65-0.83 5.17-3.41 7.83-5.75 2.66-2.34 8.73-7.51 13.5-11.5 5.68-4.75 8.5-7.77 8.17-8.75-0.27-0.83-0.95-1.27-1.5-1-0.55 0.28-1 0.05-1-0.5 0-0.55-1.12-1.22-2.5-1.5-1.37-0.27-2.49-0.84-2.47-1.25 0.02-0.41-3.02-2.21-6.75-3.98-3.73-1.78-7.04-3.24-7.36-3.25-0.32-0.01-1.67 1.12-3 2.51z"/>
		<path id="Path 11" class="s3" d="m416.15 633.65c-0.63 0.19-0.92 0.8-0.65 1.35 0.28 0.55-0.06 0.95-0.75 0.88-0.69-0.06-1.81-0.06-2.5 0-0.72 0.07-0.94 0.65-0.51 1.37q0.73 1.24-0.5 0.5c-0.68-0.41-1.91-0.52-2.74-0.25-0.87 0.29-1.19 1-0.75 1.7q0.74 1.19-0.75 0.64c-0.82-0.3-8.67 2.99-17.44 7.31-8.77 4.32-15.86 8.31-15.75 8.86 0.1 0.54-0.37 0.69-1.06 0.32-0.69-0.37-0.35 0.32 0.75 1.53 1.1 1.21 2.56 2.19 3.25 2.17 0.69-0.02 1.25 0.42 1.25 0.97 0 0.55 4.57 4.71 10.16 9.25 5.58 4.54 10.53 8.14 11 8 0.46-0.14 0.84 0.2 0.84 0.75 0 0.55 3.04 2.88 6.75 5.17 3.71 2.29 7.31 4.21 8 4.25 0.69 0.04 1.25 0.42 1.25 0.83 0 0.41 2.81 2.29 6.25 4.18 3.44 1.89 6.93 3.57 7.75 3.75 0.83 0.18 1.73 0.62 2 0.99 0.28 0.37 2.98 1.81 6 3.2 3.03 1.38 5.84 2.32 6.25 2.07 0.41-0.24 0.57-1.45 0.36-2.69-0.22-1.24-0.93-10.8-1.59-21.25-0.65-10.45-1.38-20.01-1.61-21.25-0.27-1.49-2.02-3.05-5.16-4.62-2.61-1.3-6.24-4.12-8.06-6.25-1.81-2.13-4.18-4.89-5.25-6.13-1.06-1.24-1.64-2.47-1.27-2.75 0.36-0.27 0.14-0.5-0.5-0.5-0.64 0-1.12-0.34-1.05-0.75 0.06-0.41 0.06-1.31 0-2-0.07-0.69-0.57-1.02-1.12-0.75-0.55 0.28-1.16 0.12-1.35-0.35-0.19-0.47-0.87-0.69-1.5-0.5z"/>
		<path id="Path 12" class="s2" d="m475.08 596.12c-1.87 1.14-3.34 2.48-3.25 2.98 0.1 0.49-0.17 0.79-0.58 0.65-0.42-0.14-6.01 3.12-12.43 7.25-6.42 4.12-11.52 7.73-11.34 8 0.18 0.27-0.19 0.53-0.83 0.57-0.63 0.04-5.31 2.85-10.4 6.25-8.51 5.69-9.21 6.4-8.75 8.93 0.28 1.51 1.74 4.52 3.25 6.68 1.51 2.16 5.65 7.11 9.19 11 3.54 3.89 7.36 9.09 8.49 11.57 1.74 3.81 2.07 6.71 2.19 19 0.08 7.98 0.62 15.4 1.19 16.5 0.58 1.1 1.71 4.48 2.51 7.5l1.45 5.5c12.19 3.41 17.19 4.65 18.98 4.95 2.77 0.47 3.25 0.25 3.25-1.45 0-1.1 0.56-2.01 1.25-2.02 0.77 0 0.87-0.29 0.25-0.75-0.55-0.4-1.93-2.08-3.06-3.73-1.14-1.65-2.38-3.56-2.75-4.25-0.46-0.83 1.6-2.56 6.06-5.12 3.71-2.13 8.75-4.95 11.2-6.25 3.9-2.08 4.74-3.16 6.75-8.63 2.1-5.69 2.63-6.34 6.05-7.29 2.06-0.57 5.91-2.93 8.56-5.25 3.54-3.1 5.23-5.53 6.39-9.21 0.87-2.75 4.23-10.63 7.46-17.5 3.24-6.88 5.89-13.4 5.89-14.5 0.01-1.1-0.79-2.77-1.77-3.71-0.98-0.94-5.61-3.01-10.28-4.6-4.67-1.59-9.85-3.59-11.5-4.44-1.65-0.86-3.96-2.62-5.14-3.9-1.17-1.29-3.09-4.26-4.25-6.6-1.16-2.34-2.9-4.67-3.86-5.18-0.96-0.51-4.67-1.85-8.25-2.98-3.57-1.14-6.95-2.06-7.5-2.06-0.55 0-2.54 0.94-4.42 2.09z"/>
		<path id="Path 13" class="s0" d="m691.92 444.95c-4.08 1.51-9.89 4-12.92 5.54-3.02 1.54-9.33 5.16-14 8.05-4.67 2.88-13.9 9.28-20.5 14.21-6.6 4.94-24.83 17.55-40.5 28.04-15.67 10.48-33.02 22.36-38.55 26.39-5.53 4.02-12.85 9.46-16.25 12.07-3.41 2.61-6.18 5.09-6.16 5.5 0.02 0.41 1.93 2.14 4.25 3.84 2.32 1.7 11.19 8.03 19.71 14.06 8.53 6.03 19.33 13.45 24 16.5 4.67 3.04 14.13 8.91 21 13.04 6.88 4.13 18.58 10.67 26 14.53 7.42 3.87 17.78 8.84 23 11.05 5.23 2.21 13.21 5.19 17.75 6.63 4.54 1.43 8.7 2.37 9.25 2.1 0.55-0.27 3.19-4.89 5.87-10.25 2.68-5.36 6.77-14.92 9.09-21.25 2.31-6.33 5.31-16 6.65-21.5 1.35-5.5 3.1-14.5 3.9-20 0.85-5.83 1.46-17.71 1.48-28.5 0.01-10.53-0.6-23.24-1.43-29.5-0.79-6.05-2.56-15.73-3.92-21.5-1.37-5.77-3.87-14.77-5.56-20-1.69-5.23-3.45-10.02-3.91-10.65-0.61-0.83-2.87-0.39-8.25 1.6z"/>
		<path id="Path 14" fill-rule="evenodd" class="s2" d="m687.89 456.06c0.89 0.49 2.02 0.56 2.52 0.16 0.52-0.41 0.62 0.03 0.25 1.03-0.36 0.96-0.32 1.74 0.09 1.72 0.41-0.01 1.49 2.13 2.38 4.75 0.9 2.63 2.81 9.51 4.24 15.28 1.42 5.77 3.27 15.9 4.1 22.5 0.83 6.6 1.48 17.17 1.44 23.5-0.04 6.33-0.47 15.33-0.97 20-0.49 4.67-0.93 9.17-0.98 10-0.05 0.83-0.28 2.51-0.52 3.75-0.32 1.65-0.87 2.05-2.05 1.5-0.89-0.41-2.91-3-4.49-5.75-1.96-3.43-3.16-7.36-3.81-12.5-0.52-4.13-1.88-9.86-3.02-12.75-1.14-2.89-3.9-8.06-6.14-11.5-3.12-4.78-3.91-5.55-3.36-3.25 0.39 1.65 1.94 6.15 3.44 10 1.49 3.85 3.75 11.05 5.02 16 1.27 4.95 3.44 11.02 4.82 13.5 1.39 2.48 3.78 6.19 5.33 8.25 2.64 3.51 2.75 4.05 1.78 8.5-0.56 2.61-1.8 7.36-2.75 10.54-0.94 3.19-1.94 5.59-2.21 5.34-0.27-0.26-0.59 0.74-0.7 2.2-0.11 1.47-0.79 3-1.5 3.4-0.72 0.41-0.96 0.75-0.55 0.75 0.41 0.01-0.22 2.61-1.4 5.77-1.18 3.16-2.57 5.98-3.08 6.25-0.52 0.27-0.9 0.84-0.86 1.25 0.05 0.41 0.09 1.42 0.09 2.25 0 0.83-0.79 1.49-1.75 1.47-0.96-0.01-1.42 0.32-1.01 0.75 0.4 0.43-0.05 1.33-1 2-0.96 0.67-2.75 1.23-3.99 1.25-1.24 0.02-3.49-0.49-5-1.13-1.51-0.64-3.09-1.09-3.5-1-0.41 0.09-0.75-0.29-0.75-0.84 0-0.55-0.56-0.74-1.25-0.43-0.69 0.32-1.92-0.06-2.75-0.83-0.83-0.77-2.17-1.39-3-1.38-0.83 0.01-7.47-2.88-14.76-6.42-7.3-3.54-12.81-6.67-12.25-6.94 0.58-0.29 0.06-1.8-1.24-3.57-2.03-2.76-2.85-3.09-8.25-3.33-3.96-0.17-6.59-0.83-7.73-1.93-0.95-0.92-1.52-2.01-1.25-2.42 0.26-0.41 0.03-0.75-0.52-0.75-0.55 0-1-0.67-1-1.5 0-0.83-0.45-1.73-1-2-0.55-0.27-1.79-0.25-2.75 0.05-1.51 0.48-1.55 0.68-0.25 1.5 1.13 0.72 0.89 0.87-1 0.59-1.37-0.2-2.61-0.88-2.75-1.5-0.14-0.63-0.7-0.91-1.25-0.64-0.55 0.27-1 0.05-1-0.5 0-0.55-0.67-1-1.5-1-0.83 0-1.27-0.45-1-1 0.27-0.55 0.16-0.95-0.25-0.88-0.41 0.06-1.2 0.07-1.75 0.02-0.55-0.06-2.01-1.01-3.25-2.12-1.24-1.11-2.25-1.68-2.25-1.27-0.01 0.41-1.17-0.6-2.58-2.25-1.41-1.65-2.27-2.33-1.92-1.5 0.36 0.83-0.17 0.51-1.17-0.71-1.01-1.21-2.06-2-2.33-1.74-0.27 0.25-2.28-1.23-4.46-3.29-2.18-2.07-3.61-3.09-3.18-2.26 0.44 0.83-0.14 0.49-1.28-0.75-1.15-1.24-2.42-2.25-2.83-2.26-0.41-0.01-1.78-1.24-3.03-2.75-1.25-1.51-2.27-3.08-2.25-3.49 0.02-0.41 0.98-4.46 2.13-9 1.16-4.54 2.17-9.22 2.25-10.39 0.08-1.18 0.38-2.34 0.65-2.58 0.27-0.23 1.85-1.39 3.5-2.58 1.65-1.18 3.34-1.93 3.75-1.67 0.41 0.26 0.54 0.13 0.28-0.28-0.26-0.41 1.09-1.99 3-3.5 1.91-1.51 4.03-2.45 4.72-2.09 0.69 0.37 0.92 0.26 0.5-0.25-0.41-0.5 2.29-3.07 6-5.71 3.71-2.65 12.15-8.24 18.75-12.43 6.6-4.19 12.56-7.66 13.25-7.7 0.69-0.04 1.25-0.41 1.25-0.82 0-0.41 1.58-1.65 3.5-2.75 1.92-1.1 4.4-2 5.5-2 1.1 0 2.23 0.68 2.5 1.5 0.35 1.04-0.57 1.8-3 2.5-2.9 0.83-3.29 1.24-2.25 2.4 0.69 0.77 1.36 1 1.5 0.5 0.14-0.49 0.98-0.56 1.87-0.15 0.89 0.41 2.58 2.46 3.75 4.54 1.53 2.72 3.12 4.06 5.63 4.75 1.92 0.52 4.51 0.95 5.75 0.95 1.24 0.01 4.39-1.82 7-4.06 2.98-2.56 5.31-3.83 6.25-3.43 0.83 0.35 2.85 0.88 4.5 1.18 1.82 0.33 4.57-0.17 7-1.26 2.2-1 4.11-1.95 4.25-2.12 0.14-0.16-1.44-2.54-3.5-5.27-2.06-2.74-4.65-5.2-5.75-5.49-1.1-0.28-2.79-1.64-3.75-3.02-0.96-1.39-1.86-3.08-2-3.77-0.14-0.69-1.49-2.04-3-3-1.7-1.08-2.73-2.61-2.71-4 0.02-1.24 1.26-3.26 2.75-4.5 1.49-1.24 3.16-2.3 3.71-2.37 0.55-0.06 1.34-0.06 1.75 0 0.41 0.07 0.75-0.33 0.75-0.88 0-0.55 1.35-1.68 3-2.5 1.65-0.82 3.01-1.16 3.02-0.75 0 0.41 0.4 0.2 0.87-0.47 0.47-0.68 1.7-1.37 2.73-1.54 1.03-0.18 2.73-0.83 3.77-1.44 1.17-0.7 2.5-0.79 3.5-0.24zm-29 15.33c0.76 0.06 1.88 1.21 2.5 2.56 0.61 1.35 2.12 3.49 3.36 4.75 1.24 1.27 2.02 2.75 1.75 3.3-0.27 0.55-0.05 1 0.5 1 0.55 0 1 0.68 1 1.5 0 0.82-1.12 2.63-2.5 4-1.37 1.37-3.06 2.29-3.75 2.03-0.69-0.25-2.37-3.41-3.75-7.01-1.37-3.61-2.84-6.55-3.25-6.54-0.41 0.01-0.92 0.36-1.12 0.77-0.2 0.41-1.33 1.09-2.5 1.5-1.44 0.51-2.21 0.32-2.37-0.57-0.14-0.73 1.77-2.69 4.25-4.36 2.47-1.67 5.11-2.99 5.88-2.93z"/>
		<path id="Path 15" class="s0" d="m732.99 437.75c-0.01 0.41 1.38 4.57 3.08 9.25 1.7 4.68 4.35 13.68 5.9 20 1.54 6.32 3.29 14.88 3.89 19 0.59 4.13 1.3 9.75 1.57 12.5 0.27 2.75 0.79 10.4 1.15 17 0.39 7.01 0.17 18.03-0.54 26.5-0.66 7.98-2.07 19.23-3.14 25-1.07 5.77-3.35 15.67-5.08 22-1.73 6.33-5.66 17.9-8.73 25.72l-5.59 14.23c5.42 0.04 10.83-0.63 15.5-1.46 4.67-0.83 11.87-2.44 16-3.59 4.12-1.14 11.55-4.01 16.5-6.36 4.95-2.35 11.54-6.02 14.64-8.16 3.1-2.13 8-5.9 10.89-8.38 2.88-2.48 7.56-7.42 10.39-11 2.83-3.58 6.58-8.75 8.33-11.5 1.75-2.75 4.78-8.83 6.73-13.5 1.95-4.67 3.43-8.52 3.28-8.54-0.14-0.02-2.06-1.36-4.26-2.98-2.2-1.61-4.79-3.84-5.75-4.95-0.96-1.12-3.09-4.73-4.73-8.03-1.65-3.3-3.27-8.48-3.62-11.5-0.42-3.7-0.09-7.63 1.01-12 0.96-3.78 3.2-8.76 5.37-11.9 2.04-2.97 5.3-6.67 7.22-8.22 3.33-2.68 3.44-2.95 2.15-5.6-0.75-1.53-3.27-5.71-5.62-9.28-2.34-3.57-6.91-9.4-10.15-12.94-3.23-3.54-9.26-8.95-13.38-12.03-4.13-3.07-10.88-7.21-15-9.18-4.13-1.98-10.65-4.57-14.5-5.76-3.85-1.19-8.13-2.39-9.5-2.67-1.38-0.28-5.2-0.93-8.5-1.45-3.3-0.51-8.14-0.94-10.75-0.95-2.61-0.01-4.75 0.32-4.76 0.73zm-459.49 0.31c-3.3 0.52-8.7 1.64-12 2.5-3.3 0.86-9.38 2.97-13.5 4.71-4.13 1.73-10.65 5.27-14.5 7.85-3.85 2.59-9.88 7.34-13.4 10.55-3.53 3.2-8.29 8.31-10.59 11.33-2.3 3.02-5.86 8.43-7.92 12l-3.75 6.5c6.56 5.43 9.68 8.8 11.16 11 1.48 2.2 3.44 6.25 4.36 9 0.91 2.75 1.67 7.7 1.67 11 0.01 3.3-0.88 8.92-1.96 12.5-1.14 3.75-3.4 8.19-5.34 10.5-1.85 2.2-5.03 5.01-7.05 6.25-2.02 1.24-3.68 2.7-3.68 3.25 0 0.55 1.8 5.16 4.01 10.25 2.21 5.09 5.47 11.71 7.25 14.71 1.78 3.01 7.06 9.47 11.74 14.36 4.91 5.13 11.88 11.09 16.5 14.09 4.4 2.86 11.71 6.86 16.25 8.89 4.54 2.04 12.64 4.82 18 6.19 5.36 1.37 13.69 2.83 18.51 3.25 4.82 0.42 8.76 0.53 8.76 0.26 0.01-0.27-1.72-4.55-3.83-9.5-2.11-4.95-5.03-12.6-6.49-17-1.45-4.4-4-13.63-5.65-20.5-1.65-6.88-3.7-17-4.56-22.5-0.85-5.5-1.82-16.98-2.14-25.5-0.33-8.52-0.1-21.8 0.51-29.5 0.6-7.7 2.27-19.85 3.7-27 1.43-7.15 2.79-13.9 3.02-15 0.22-1.1 1.31-4.81 2.42-8.25 1.45-4.54 2.48-6.25 3.75-6.24 0.96 0.01 4.68 0.7 8.25 1.53 3.57 0.83 9.43 2.45 13 3.61 3.57 1.15 6.82 2.38 7.2 2.72 0.39 0.35-0.37 4.9-1.68 10.13-1.32 5.23-3.44 14.68-4.7 21-2.04 10.13-2.31 14.36-2.29 35.5 0.02 18.72 0.42 26.09 1.81 33.5 0.98 5.23 2.92 14 4.31 19.5 1.4 5.5 4.24 14.73 6.32 20.5 2.08 5.77 5.53 14.04 7.66 18.37 2.13 4.33 4.43 8.27 5.12 8.75 0.79 0.55 5.24-0.44 12-2.68 5.91-1.96 17.95-7.11 26.75-11.45 8.8-4.35 20.5-10.45 26-13.56 5.5-3.11 13.6-8.16 18-11.21 4.4-3.05 18.49-13.01 31.31-22.14 21.9-15.58 23.2-16.68 21.5-18.18-1-0.88-11.94-9-24.31-18.06-12.38-9.05-26.55-19.32-31.5-22.83-4.95-3.5-17.55-12.76-28-20.56-10.45-7.81-23.5-17.22-29-20.91-5.5-3.68-14.5-8.89-20-11.57-5.5-2.67-13.6-5.98-18-7.36-4.4-1.38-10.7-2.98-14-3.57-3.3-0.58-10.27-1.26-15.5-1.5-5.23-0.24-12.2 0-15.5 0.52z"/>
		<path id="Path 16" class="s2" d="m430.92 561.76c-0.78 0.27-3.22 2.2-5.42 4.3-2.2 2.1-5.24 4.3-6.75 4.88-1.51 0.58-3.76 1.05-5 1.03-1.43-0.02-2.71 0.9-3.5 2.5-0.69 1.39-1.02 3.2-0.75 4.03 0.27 0.83 0.84 1.52 1.25 1.53 0.41 0.02 1.99-0.88 3.5-2 1.51-1.11 3.2-2.03 3.75-2.03 0.55 0 2.46-1.41 4.25-3.13 1.79-1.73 3.36-3.08 3.5-3 0.14 0.07 1.37-0.77 2.75-1.87 1.37-1.1 2.76-2 3.07-2 0.32 0 1.22-0.67 2-1.5 1.18-1.24 1.2-1.65 0.1-2.36-0.73-0.47-1.97-0.64-2.75-0.38z"/>
		<path id="Path 17" class="s3" d="m332 540c0 3.45-0.45 4.27-3.25 5.95-1.79 1.07-3.59 1.74-4 1.5-0.41-0.25-0.69 0.56-0.63 1.8 0.07 1.24 0.73 5.4 1.47 9.25 0.74 3.85 2.74 11.95 4.45 18 1.71 6.05 5.14 15.95 7.62 22 2.48 6.05 4.96 11.23 5.51 11.5 0.55 0.27 0.95 0.95 0.89 1.5-0.06 0.55 0.68 1.06 1.66 1.14 0.98 0.08 5.16-1.42 9.28-3.34 4.13-1.91 7.73-3.78 8-4.14 0.27-0.36 1.4-0.82 2.5-1.01 1.1-0.19 2.23-0.79 2.5-1.34 0.27-0.54 0.84-0.94 1.25-0.9 0.41 0.05 2.77-0.81 5.25-1.91 2.48-1.1 4.49-2.56 4.47-3.25-0.01-0.69 0.32-0.93 0.75-0.54 0.43 0.4 2.92-0.39 5.53-1.75 2.61-1.35 4.75-2.69 4.75-2.96 0-0.27-0.45-0.27-1 0-0.55 0.27-0.89-0.29-0.75-1.25 0.14-0.96-0.31-1.64-1-1.5-0.69 0.14-1.14-0.1-1-0.52 0.14-0.42-0.32-1.44-1.01-2.25-0.69-0.81-2.16-2.72-3.25-4.23-1.24-1.71-2.46-2.47-3.23-2-0.74 0.45-0.95 0.35-0.52-0.25 0.4-0.55-0.06-1.79-1.01-2.75-0.95-0.97-2.08-1.42-2.51-1-0.43 0.41-0.75 0.3-0.71-0.25 0.04-0.55-2.43-2.69-5.47-4.75-3.05-2.06-5.55-3.41-5.56-3 0 0.41-0.34 0.27-0.75-0.33-0.4-0.59-2.53-2.26-4.73-3.7-2.2-1.45-4.45-2.32-4.99-1.93-0.59 0.42-0.69 0.2-0.25-0.54 0.43-0.72 0.21-1.27-0.51-1.3-0.69-0.03-2.98-2.25-5.09-4.95-2.86-3.63-3.98-6.13-4.38-9.7-0.29-2.64-1.05-5.25-1.69-5.8-0.64-0.55-2.16-1.56-3.38-2.25-1.21-0.69-2.89-1.25-3.71-1.25-1.08 0-1.5 1.11-1.5 4zm-6.75-4.46c-0.69 0.8-1.25 1.91-1.25 2.46 0 0.55 0.68 1.67 1.5 2.5 1.33 1.33 1.62 1.19 2.54-1.25 0.57-1.51 0.8-3.31 0.5-4-0.3-0.69-0.88-1.23-1.29-1.21-0.41 0.02-1.31 0.69-2 1.5z"/>
		<path id="Path 18" class="s2" d="m323.02 525.25c0 9.49 0.42 17.92 0.92 18.75 0.8 1.33 1.08 1.33 2.53 0 0.89-0.83 1.61-1.95 1.6-2.5-0.01-0.55-0.25-0.66-0.54-0.25-0.29 0.41-1.2 0.08-2.03-0.75-0.82-0.83-1.5-1.95-1.5-2.5 0-0.55 0.68-1.67 1.5-2.5 0.83-0.83 2.04-1.16 2.69-0.75 0.9 0.57 1.04-1.3 0.58-7.75-0.34-4.67-1.33-10.86-2.19-13.75-0.87-2.89-2.03-5.25-2.58-5.25-0.63 0-0.99 6.41-0.98 17.25zm6.6-55.89c-0.83 3.38-1.79 9.74-2.13 14.14-0.34 4.4-0.78 10.02-0.98 12.5-0.22 2.79 0.53 7.54 1.99 12.5 1.3 4.4 2.84 11.83 3.43 16.5 0.59 4.67 1.06 8.95 1.05 9.5-0.01 0.55 1.57 1.67 3.52 2.5 1.95 0.83 3.53 1.84 3.52 2.25-0.01 0.41 0.43 0.75 0.98 0.75 0.55 0 1-2.48 1-5.5 0-3.02 0.45-5.5 1-5.5 0.55 0 2.91 2.27 5.25 5.04 2.34 2.77 3.91 5.25 3.5 5.5-0.41 0.25-1.76-0.68-3-2.06-1.24-1.39-2.59-2.52-3-2.5-0.41 0.01-0.75 1.6-0.75 3.52 0 1.92 1.07 5.64 2.39 8.25 1.31 2.61 4.57 6.81 7.25 9.32 2.67 2.51 6.66 5.71 8.86 7.11 2.2 1.4 6.43 3.4 9.41 4.43 4.48 1.57 5.85 2.64 8 6.28 1.42 2.41 4.5 7.03 6.84 10.25 2.34 3.22 4.81 5.86 5.5 5.86 0.69 0.01 2.94-1.12 5-2.5 2.83-1.89 4-3.54 4.79-6.75 0.57-2.34 1.59-5.27 2.25-6.52 1.01-1.9 0.92-2.56-0.58-4-1.41-1.36-3.28-1.68-8.75-1.48-6.91 0.25-6.96 0.23-7.21-2.47-0.19-2.1-1-2.95-3.53-3.75-1.8-0.57-3.26-1.37-3.25-1.78 0.02-0.41 0.71-0.75 1.53-0.75 0.83 0 1.5-0.67 1.5-1.5 0-0.83 0.79-1.9 1.75-2.39 1.38-0.7 0.59-1.21-3.75-2.39-3.02-0.83-6.85-1.81-8.5-2.19-1.65-0.38-4.46-1.32-6.25-2.11-2.93-1.28-3.25-1.84-3.26-5.67-0.01-2.34 0.73-6.5 1.63-9.25 0.91-2.75 2.82-6.28 4.26-7.84 1.44-1.56 3.75-3.43 5.12-4.16 1.38-0.73 4.08-1.45 6-1.59 1.93-0.15 5.08-0.17 7-0.04 2.86 0.18 4.65 1.41 9.75 6.68 3.44 3.55 6.24 7.01 6.22 7.7-0.02 0.69-0.7 2.15-1.52 3.25-0.82 1.1-1.48 3.24-1.47 4.75 0.01 1.75-0.8 3.3-2.23 4.26-1.24 0.83-2.92 1.48-3.75 1.45-0.82-0.03-2.07 0.53-2.76 1.25-1.03 1.04-0.93 1.74 0.5 3.61l1.76 2.31c3.88-4.01 5.56-5.17 6.25-5.16 0.69 0.02 1.48 0.7 1.75 1.53 0.27 0.83 1.51 1.49 2.75 1.47 1.25-0.01 4.25 1.78 6.75 4.03 2.48 2.23 5.18 4.06 6 4.07 0.83 0.01 2.18-0.72 3-1.63 1.34-1.48 1.29-1.81-0.5-3.07-1.1-0.77-3.24-1.4-4.75-1.39-2.28 0.02-2.79-0.45-3-2.73-0.23-2.49-0.62-2.75-4.17-2.75-2.15 0-4.1-0.45-4.33-1-0.23-0.55 0.3-3.25 1.18-6 1.21-3.79 1.45-7.18 0.99-14-0.33-4.95-1.07-10.58-1.64-12.5-0.57-1.92-1.76-4.28-2.66-5.23-0.89-0.95-1.96-1.52-2.37-1.25-0.41 0.26-0.64-0.03-0.5-0.64 0.14-0.62-2.67-3.14-6.25-5.59-3.57-2.45-8.98-6.82-12-9.71-3.02-2.88-7.3-6.61-9.5-8.28-2.2-1.67-8.05-5.73-13-9.03-4.95-3.29-10.8-6.94-13-8.09-2.2-1.16-4.35-1.79-4.78-1.4-0.43 0.4-0.75 0.27-0.72-0.28 0.03-0.55-1.19-1.62-2.72-2.38-1.53-0.76-3.76-1.5-4.96-1.64-1.91-0.23-2.38 0.53-3.7 5.88z"/>
		<path id="Path 19" class="s0" d="m334.73 510.73c-0.34 0.43-0.34 1.44 0.01 2.27 0.34 0.83 1.9 3.64 3.44 6.25 1.55 2.61 3.05 4.64 3.32 4.5 0.28-0.14-0.6-2.73-1.95-5.75-1.35-3.02-2.84-6.07-3.32-6.77-0.47-0.69-1.15-0.92-1.5-0.5z"/>
		<path id="Path 20" class="s0" d="m483 322.58c-4.68 0.72-12.77 2.29-18 3.48-5.23 1.2-14 3.75-19.5 5.66-5.5 1.91-16.41 6.58-24.25 10.38-7.84 3.79-17.51 8.98-21.5 11.53-3.99 2.54-11.52 8.02-16.75 12.17-5.23 4.15-12.36 10.29-15.85 13.63-3.49 3.34-9.59 10.12-13.55 15.07-3.97 4.95-8.21 10.35-9.44 12-1.23 1.65-2.21 3.34-2.19 3.75 0.01 0.41 8.02 4.6 17.78 9.31 9.76 4.7 23.38 12.01 30.25 16.23 6.87 4.23 19.48 13.06 28 19.63 8.52 6.58 18.2 14.03 21.5 16.56 3.3 2.54 12.98 9.58 21.5 15.65 8.52 6.07 19.1 13.51 23.5 16.54 4.4 3.02 11.49 7.82 15.75 10.66l7.75 5.17c11.24-8.03 25.98-18.52 40-28.51 14.02-9.98 30.23-21.31 36-25.17 5.77-3.86 18.6-11.88 28.5-17.82 9.9-5.93 19.8-12.21 22-13.94 2.2-1.73 6.48-4.89 9.5-7.02 3.02-2.13 9.55-5.96 14.5-8.51 4.95-2.55 11.87-5.51 15.38-6.58 3.51-1.07 6.55-2.51 6.75-3.2 0.21-0.69-2.42-5.19-5.84-10-3.41-4.81-10.72-13.28-16.25-18.81-5.52-5.53-13.64-12.78-18.04-16.1-4.4-3.33-11.15-8.08-15-10.55-3.85-2.48-9.48-5.87-12.5-7.54-3.02-1.67-10.45-5.15-16.5-7.74-6.05-2.59-15.5-6.2-21-8.03-5.5-1.83-14.5-4.25-20-5.38-5.5-1.13-14.27-2.5-19.5-3.06-5.23-0.55-17.38-0.95-27-0.89-9.63 0.07-21.32 0.71-26 1.43z"/>
		<path id="Path 21" class="s2" d="m591.69 420.75c-0.34 0.41 0.03 1.99 0.84 3.5 0.81 1.51 1.36 3.76 1.22 5-0.14 1.24-0.7 2.58-1.25 2.98-0.55 0.41-2.01 0.75-3.25 0.75-1.61 0.02-2.39-0.7-2.75-2.48-0.28-1.38-0.95-2.5-1.5-2.5-0.55 0-1.18 0.34-1.39 0.75-0.22 0.41-0.55 3.63-0.75 7.15-0.31 5.46-0.1 6.45 1.39 6.75 0.98 0.19 2.83-0.86 4.19-2.4 2.19-2.47 2.6-2.6 4.09-1.25 0.9 0.82 2.73 3.41 4.06 5.75 1.97 3.47 2.82 4.15 4.66 3.73 1.24-0.29 3.6-1.57 5.25-2.85 1.65-1.27 3.85-3.17 4.88-4.22 1.85-1.87 1.85-1.92 0-2.51-1.03-0.33-3.23-0.88-4.88-1.23-2.18-0.46-3.69-0.1-5.5 1.33-1.38 1.08-2.84 1.75-3.25 1.48-0.41-0.26-0.65-3.07-0.53-6.23 0.17-4.64-0.28-6.57-2.34-10-1.41-2.34-2.84-3.92-3.19-3.5zm-45.62-32.72c-1.44 0.54-2.37 1.63-2.28 2.69 0.08 0.98 1.33 3.58 2.77 5.78 1.44 2.2 3.36 4.57 4.28 5.27 0.91 0.69 2.9 1.26 4.41 1.25 1.74-0.01 3.12-0.76 3.75-2.02 0.55-1.1 1-3.35 1-5 0-1.65-0.79-3.75-1.75-4.66-0.96-0.92-3.21-2.27-5-3-1.79-0.74-3.59-1.31-4-1.28-0.41 0.04-1.84 0.47-3.18 0.97zm53.4-28.2c-1.01 1-1.75 2.47-1.66 3.25 0.1 0.78 0.85 2.43 1.68 3.67 0.83 1.24 3.87 3.56 6.76 5.16 2.89 1.61 7.2 4.64 9.58 6.75l4.32 3.84c-8.09 8.45-10.38 12.09-11.9 16.29-1.24 3.42-2.81 6.26-3.5 6.33-0.69 0.06-1.81 0.06-2.5 0-0.69-0.07-1.25 0.11-1.25 0.38 0 0.27 0.84 1.74 1.86 3.25 1.02 1.51 3.16 3.05 4.75 3.41 1.59 0.36 3.68 0.24 4.64-0.25 1.32-0.69 2.85-0.05 6.25 2.59 3.94 3.07 4.94 3.41 8.02 2.75 2.18-0.47 3.5-0.37 3.48 0.25-0.02 0.55-0.88 1.9-1.91 3-1.27 1.36-1.75 3.04-1.48 5.25 0.21 1.79 0.84 3.25 1.39 3.25 0.55 0 6.06-3.42 12.25-7.6 6.19-4.17 11.58-8.11 11.98-8.75 0.41-0.63 0.75-0.81 0.75-0.4 0.01 0.41 1.37 0.07 3.02-0.75 1.65-0.82 2.99-2.06 2.97-2.75-0.01-0.69 0.32-0.92 0.75-0.53 0.43 0.4 1.57 0.29 2.53-0.25 1.59-0.88 1.46-1.31-1.45-4.72-1.76-2.06-3.56-3.64-4-3.5-0.44 0.14-0.58-0.2-0.3-0.75 0.27-0.55-5.59-6.51-13.04-13.25-7.45-6.74-13.98-12.14-14.5-12-0.53 0.14-0.96-0.2-0.96-0.75 0-0.55-2.59-2.74-5.75-4.87-3.16-2.13-8.11-5.28-11-7-2.89-1.72-6.31-3.13-7.6-3.13-1.3 0-3.18 0.82-4.18 1.83z"/>
		<path id="Path 22" class="s0" d="m625.65 399c-0.91 1.1-1.42 2.45-1.15 3 0.27 0.55 1.06 0.78 1.75 0.51 0.69-0.27 1.92-0.06 2.75 0.45 1.29 0.81 1.32 1.63 0.24 5.74-0.7 2.64-1.15 4.92-1 5.06 0.14 0.15 1.5-0.64 3.01-1.75 1.51-1.1 3.42-2.01 4.25-2.01 0.83 0 1.79 0.56 2.14 1.25 0.46 0.91 0.88 0.77 1.5-0.5 0.57-1.16 0.24-3.01-0.98-5.5-1.01-2.06-3.37-4.78-5.25-6.03-1.87-1.25-3.91-2.26-4.51-2.25-0.61 0.02-1.85 0.93-2.75 2.03z"/>
		<path id="Path 23" class="s2" d="m471.5 339.65c-1.1 0.24-5.15 1.14-9 2.01-6.61 1.49-7.44 2-15 9.35-4.4 4.27-9.01 8.27-10.25 8.88-1.24 0.61-2.02 1.56-1.75 2.11 0.31 0.62 1.46 0.42 3-0.5 1.54-0.92 2.69-1.12 3-0.5 0.27 0.55 0.27 1.68 0 2.5-0.27 0.83-1.18 1.5-2 1.5-0.82 0-1.72 1.01-1.99 2.25-0.26 1.24-0.47 3.15-0.45 4.25 0.01 1.1-0.86 3.13-1.93 4.5-1.08 1.38-2.22 2.16-2.54 1.75-0.33-0.41 0.09-1.76 0.92-3 0.83-1.24 1.5-3.71 1.5-5.5-0.01-1.79-0.57-3.53-1.26-3.87-0.69-0.34-3.16 0.11-5.5 1-2.97 1.13-4.72 2.6-5.83 4.87-1.57 3.24-1.57 3.26 2.25 6.97l3.83 3.73c-3.31 3.45-4.96 4.07-6.78 3.86-1.52-0.17-2.74-0.76-2.7-1.31 0.04-0.55 0.95-0.89 2.03-0.75 1.07 0.14 2.22-0.31 2.55-1 0.35-0.71-1.17-2.87-3.5-5-2.25-2.06-4.1-4.2-4.1-4.75 0-0.55 1.36-2.46 3.03-4.25 1.67-1.79 2.9-3.36 2.75-3.48-0.15-0.13-2.76 0.48-5.78 1.35-3.02 0.87-6.07 2.1-6.77 2.73-0.7 0.63-1.6 0.8-2 0.38-0.4-0.43-0.05-1.44 0.77-2.24 0.82-0.81 5.55-3.22 10.5-5.37 4.95-2.14 10.91-4.4 13.25-5.01 3.1-0.81 5.06-2.19 7.25-5.11 1.65-2.2 2.55-4.22 2-4.5-0.55-0.27-4.26 0.68-8.25 2.13-3.99 1.44-11.52 4.77-16.75 7.4-5.23 2.63-11.3 6.08-13.5 7.67-3.02 2.18-4.67 4.52-6.75 9.59-1.51 3.69-2.75 7.84-2.75 9.21 0 1.38-0.68 3.18-1.5 4-0.82 0.83-1.84 1.27-2.25 0.99-0.41-0.27 0.03-2.41 0.99-4.75 0.96-2.33 1.75-5.7 1.75-7.49 0.01-1.79-0.33-3.27-0.74-3.29-0.41-0.02-3.45 2.45-6.75 5.5-3.3 3.04-6.23 5.52-6.5 5.52-0.27-0.01-4.1 4.14-8.5 9.22-4.4 5.08-8.9 10.36-10 11.74-1.1 1.37-1.44 2.17-0.75 1.78 0.72-0.41 1.25-0.19 1.25 0.53 0 0.69 2.14 2.45 4.75 3.92 2.61 1.46 4.99 2.59 5.27 2.5 0.29-0.09 1.64 0.86 3 2.11 1.37 1.26 5.18 3.91 8.48 5.91 3.3 1.99 7.91 5.13 10.25 6.97 2.34 1.84 4.7 3.34 5.25 3.34 0.55 0 0.98 0.34 0.96 0.75-0.02 0.41 2.79 2.77 6.25 5.25 3.46 2.47 6.63 4.38 7.04 4.25 0.41-0.14 0.75 0.2 0.75 0.75 0 0.55 5.29 4.98 11.75 9.85 6.46 4.86 14.45 10.54 17.75 12.61l6 3.76c6.59-2.5 8.5-3.67 8.5-4.22 0-0.55 0.34-0.95 0.75-0.88 0.41 0.06 1.31 0.06 2 0 0.69-0.07 1.25-0.79 1.25-1.62 0-0.83-1.78-2.17-4-3l-4-1.5c4.51-7.65 5.51-8.45 7.51-8.25 1.37 0.14 4.51 1.6 6.99 3.25 2.83 1.89 4.5 3.74 4.5 5 0 1.11-0.67 2-1.5 2-0.82 0-1.5 0.45-1.5 1 0 0.56 2.83 1 6.5 1 3.57 0 8.07-0.67 10-1.5 1.93-0.82 3.9-2.29 4.39-3.25 0.52-1.03 0.52-2.99-0.02-4.75-0.5-1.65-1.99-4.57-3.32-6.5-1.32-1.92-5.25-5.71-8.73-8.41-3.48-2.71-7.79-6.31-9.59-8q-3.26-3.09-3.25-5.84c0.01-1.51-0.99-3.93-2.23-5.36-2.17-2.52-2.44-2.58-7.5-1.5-4.04 0.85-5.95 0.82-8.26-0.14-1.65-0.69-3.56-2.33-4.25-3.65-0.68-1.32-2.03-2.9-2.99-3.5-1.28-0.8-2.22-0.79-3.5 0.03-1.42 0.93-1.7 2.37-1.5 7.75 0.18 4.87-0.28 7.81-1.75 11.12-1.1 2.48-2.79 4.78-3.75 5.11-0.96 0.34-2.87 0.11-4.25-0.5-1.37-0.61-3.05-2.57-3.72-4.36-0.82-2.2-3.48-4.87-8.23-8.25-3.87-2.75-7.03-5.34-7.04-5.75 0-0.41 2.8-3.68 6.24-7.27l6.25-6.52c3.88 3.95 5.34 5.08 5.75 5.07 0.41-0.02 1.25-1.04 1.87-2.28 0.88-1.77 0.77-3-0.54-5.75-1.56-3.3-1.56-3.57 0.13-4.77 0.98-0.69 2.35-1.26 3.04-1.25 0.69 0.01 3.27-1.33 5.75-2.98 2.48-1.65 5.63-3 7-3 2.08 0 2.93 0.97 5.06 5.75 1.41 3.16 3.32 6.58 4.25 7.6 0.93 1.01 3.26 2.48 5.19 3.27 1.93 0.79 4.4 1.43 5.5 1.42 1.1 0 3.46-1.47 5.23-3.27 1.78-1.8 3.25-4.28 3.25-5.52 0.01-1.33-1.51-3.67-3.73-5.72-2.47-2.29-4.77-3.5-6.75-3.54-1.65-0.04-3.55-0.84-4.22-1.78-0.67-0.94-1.23-3.17-1.25-4.96-0.02-1.79-0.71-5.95-1.53-9.25-1.21-4.83-1.26-6.32-0.25-7.63 0.69-0.89 3.73-2.86 6.75-4.38 3.02-1.52 8.76-5.74 12.75-9.38 3.99-3.63 7.25-7.28 7.25-8.11 0-0.92-0.87-1.46-2.25-1.38-1.24 0.06-3.15 0.3-4.25 0.53zm17.58 1.03c-4.04 2.1-10.27 6.3-13.84 9.32-3.58 3.02-7.9 6.44-9.62 7.6-1.72 1.15-4.75 2.64-6.75 3.3-2 0.66-4.27 2.19-5.05 3.4-0.79 1.21-1.24 3.1-1.02 4.2 0.36 1.76 0.91 1.91 4.55 1.3 2.28-0.39 7.17-1.74 10.85-3 6.24-2.14 6.83-2.19 8.5-0.66 0.99 0.91 2.68 3.61 3.75 6 1.07 2.4 2.86 5.71 3.98 7.36 1.12 1.65 2.16 3.79 2.3 4.75 0.2 1.27-0.41 1.75-2.23 1.75-1.37 0-2.51 0.56-2.52 1.25-0.01 0.69 1.13 2.83 2.53 4.75 1.39 1.93 3.64 6.43 4.99 10 1.35 3.58 3.92 8.01 5.72 9.86 1.81 1.84 3.84 3.08 4.53 2.75 0.69-0.34 1.36-0.12 1.5 0.49 0.15 0.65 1.17 0.35 2.53-0.75 1.3-1.06 2.83-4 3.55-6.85 0.69-2.75 2.65-6.8 4.35-9 1.71-2.2 5.74-6.53 8.96-9.62 4-3.84 7.21-5.98 10.11-6.75 2.34-0.62 5.49-2.22 7-3.55 2.7-2.36 2.75-2.63 2.75-13.75 0-10.91-0.12-11.52-3.08-16.33-1.69-2.75-4.99-6.35-7.33-8-4.19-2.96-4.46-3-18.96-3.32l-14.71-0.32z"/>
		<path id="Path 24" class="s1" d="m502.25 152.5c-2.89 0.83-7.84 2.81-11 4.42-3.16 1.61-7.32 4.1-9.25 5.53-1.93 1.44-5.94 4.97-8.91 7.83-2.98 2.87-7.94 8.59-11.02 12.72-3.09 4.12-7.7 11.78-10.25 17-2.55 5.22-5.57 12.65-6.71 16.5-1.14 3.85-2.58 10.82-3.21 15.5-0.86 6.38-0.86 11 0 18.5 0.63 5.5 2.26 14.84 3.62 20.75 1.36 5.91 3.04 11 3.73 11.3 0.69 0.31 3.95-0.13 7.25-0.96 3.3-0.83 11.4-2.4 18-3.48 6.6-1.08 18.75-2.27 27-2.65 8.82-0.39 20.77-0.21 29 0.45 7.7 0.61 18.73 2.02 24.5 3.11 5.77 1.1 12.89 2.55 15.81 3.24 4.56 1.06 5.43 1.03 6.18-0.26 0.48-0.82 2.12-7.57 3.64-15 2.18-10.66 2.76-16.23 2.77-26.5 0-11.32-0.36-14.17-2.74-22-1.51-4.95-4.33-12.38-6.27-16.5-1.94-4.13-6.08-11.32-9.2-16-3.12-4.68-9.11-11.88-13.32-16-4.21-4.13-10.29-9.07-13.5-11-3.2-1.93-8.31-4.33-11.35-5.35-3.04-1.01-8.67-2.02-12.52-2.24-4.39-0.26-8.96 0.15-12.25 1.09z"/>
	</g>
</svg>