<svg version="1.1" id="Layer_1" xmlns="http://www.w3.org/2000/svg" xmlns:xlink="http://www.w3.org/1999/xlink" x="0px" y="0px"
	 width="100%" viewBox="0 0 1024 1024" enable-background="new 0 0 1024 1024" xml:space="preserve">
<path fill="#ffffff" opacity="1.000000" stroke="none" 
	d="
M171.265472,476.421448 
	C191.654099,434.380524 225.940063,411.957581 270.573456,403.653870 
	C280.997314,401.714600 291.495117,402.819946 301.952026,402.764252 
	C306.450653,402.740265 309.184845,401.480804 311.642853,397.558868 
	C342.531616,348.274200 386.679077,316.435822 441.861206,299.328400 
	C469.597687,290.729645 498.108429,286.923309 527.000732,288.843842 
	C577.889282,292.226501 624.121094,308.673096 664.402344,340.663239 
	C684.313477,356.475983 700.856506,375.244141 714.250549,396.758606 
	C717.111023,401.353241 720.318665,402.979462 725.581970,402.720612 
	C751.006653,401.470093 775.225098,406.483337 798.046936,417.782684 
	C826.997864,432.116608 847.072021,454.523163 858.075867,484.905151 
	C859.315552,488.327698 861.038452,490.486298 864.428345,491.872681 
	C887.753357,501.411987 893.740112,532.293579 877.472778,550.373901 
	C874.045166,554.183472 869.738647,556.700806 865.189819,558.778931 
	C862.823486,559.860046 861.738464,561.326660 861.079529,563.854065 
	C847.967651,614.148193 814.045532,643.846985 766.046570,659.491638 
	C748.938232,665.067810 731.262695,666.719055 713.400391,666.200989 
	C707.984863,666.044006 704.492371,667.693726 701.254028,672.054688 
	C677.766541,703.684937 648.122375,727.971313 612.478943,744.712830 
	C593.760864,753.504700 574.216125,759.858093 553.737122,763.507874 
	C507.103363,771.818787 462.173584,765.679626 419.171722,746.851013 
	C380.217712,729.794922 347.337128,704.454651 322.461365,669.501099 
	C320.224945,666.358704 317.493530,666.085144 314.226959,666.196594 
	C296.022125,666.817749 277.862762,665.890930 260.464752,660.288269 
	C212.991058,645.000305 179.273865,615.686462 166.604080,565.746155 
	C165.555679,561.613647 163.518921,559.308716 159.668228,557.597229 
	C147.672241,552.265564 141.111618,542.509460 139.778000,529.742126 
	C138.196625,514.602844 143.151459,501.371735 157.065018,494.418579 
	C165.261032,490.322723 168.742401,484.485474 171.265472,476.421448 
M479.413330,325.183563 
	C476.139374,325.732300 472.820801,326.092865 469.598175,326.857910 
	C420.441406,338.527649 379.526062,363.219727 348.578796,403.613037 
	C342.882660,411.047791 342.989594,411.500336 351.599823,415.414948 
	C373.177063,425.224976 394.155975,436.146332 412.862610,450.834717 
	C442.607635,474.190399 473.254486,496.278259 504.557312,517.480957 
	C507.717896,519.621765 510.038269,519.822754 513.406494,517.397644 
	C540.022156,498.234497 566.272400,478.554169 593.802551,460.676025 
	C609.154968,450.706085 625.690430,442.643036 640.202393,431.307037 
	C651.170715,422.739136 663.440369,416.414917 676.684937,412.032166 
	C678.203491,411.529633 679.997986,411.383392 681.004211,409.498871 
	C680.721375,408.844513 680.476562,408.055145 680.062195,407.368073 
	C679.290344,406.088135 678.442383,404.851929 677.586914,403.624847 
	C664.555908,384.933746 648.231201,369.575165 629.227661,357.200470 
	C599.918213,338.114746 568.012756,326.200470 532.900818,323.269592 
	C515.248840,321.796112 497.741150,322.088165 479.413330,325.183563 
M331.740051,618.691467 
	C333.630859,623.805176 336.783051,624.358704 341.873810,622.714966 
	C366.340729,614.815186 388.762207,602.677429 410.242828,588.986938 
	C429.747101,576.556091 448.292480,562.620056 467.242523,549.321899 
	C468.415619,548.498657 469.945892,547.878540 470.023071,545.792603 
	C469.412567,545.240356 468.745728,544.520630 467.968750,543.951172 
	C432.242096,517.766724 396.648285,491.397614 360.714813,465.499939 
	C340.602997,451.005096 318.674408,440.338562 293.286652,439.310944 
	C252.658569,437.666443 222.518097,455.170288 202.051239,490.003448 
	C200.344467,492.908295 200.364166,494.654205 203.303268,497.033295 
	C223.108353,513.064575 220.259521,544.375244 201.374573,555.972473 
	C199.376801,557.199341 198.529205,558.528320 199.392838,560.858398 
	C203.583328,572.164246 208.737259,582.946533 216.639114,592.187866 
	C234.055374,612.556335 256.419983,624.103577 282.611206,628.325317 
	C287.266754,629.075806 292.231995,631.006897 297.306671,628.805237 
	C296.271118,622.182129 292.694397,616.805603 290.643097,610.873779 
	C279.061310,577.382690 273.549805,543.177979 276.420288,507.574249 
	C277.949799,488.603210 281.086456,470.134552 286.444336,451.933350 
	C287.408051,448.659454 289.019836,447.942200 291.820618,448.605347 
	C299.901306,450.518738 307.996216,452.359558 315.860046,455.119598 
	C318.747833,456.133148 319.794525,457.195007 318.879181,460.505585 
	C314.894684,474.916718 311.597015,489.477753 310.145782,504.414581 
	C308.449677,521.871582 308.866760,539.276855 311.751007,556.542908 
	C315.328644,577.959900 321.733337,598.543213 331.740051,618.691467 
M620.886780,701.420349 
	C638.106384,690.176819 653.390259,676.797302 666.385498,660.899292 
	C665.045227,658.969849 663.313171,658.788269 661.812195,658.165833 
	C628.526123,644.363159 596.254150,628.573486 565.905334,609.041626 
	C548.120728,597.595825 530.347229,586.131592 512.661682,574.533875 
	C509.149353,572.230591 506.356415,572.056030 502.720245,574.500610 
	C493.741150,580.537231 484.356812,585.968323 475.326172,591.931702 
	C438.874176,616.002930 401.776215,638.894653 361.081268,655.300354 
	C357.200592,656.864746 356.641266,658.876831 359.476868,661.938416 
	C366.040680,669.025330 372.454987,676.265503 379.864716,682.505310 
	C406.804443,705.191650 437.297852,721.100464 471.577484,729.188354 
	C498.889404,735.632324 526.412170,736.318787 553.990356,730.008972 
	C577.806396,724.559875 599.721985,714.840454 620.886780,701.420349 
M741.287720,590.571411 
	C738.405518,602.243469 733.843018,613.318848 729.333740,624.418213 
	C727.642761,628.580383 728.775757,630.156921 733.163330,629.492615 
	C746.648254,627.451050 759.951904,624.713989 772.479004,618.991638 
	C797.896484,607.381226 815.908752,588.731812 826.421387,562.814026 
	C827.700195,559.661438 827.634094,557.677490 824.487610,555.298828 
	C805.199646,540.717712 804.546204,513.549622 823.101257,497.909882 
	C826.065857,495.411072 826.307922,493.733551 824.507874,490.522003 
	C809.135254,463.094818 785.833557,446.700317 755.211182,440.540436 
	C748.819824,439.254761 742.270020,437.875305 735.034363,440.248779 
	C744.483215,464.376373 748.834717,489.113464 750.055420,514.423584 
	C751.288513,539.990601 748.229126,565.100525 741.287720,590.571411 
M562.479797,558.986938 
	C583.881470,574.607971 606.015686,589.104126 629.254517,601.845764 
	C646.630066,611.372620 664.178406,620.548950 683.395325,626.035889 
	C687.316895,627.155640 689.619324,626.414490 691.514465,622.801758 
	C705.289795,596.541077 713.784302,568.724060 715.547974,539.087891 
	C717.365540,508.545135 713.242554,478.744598 702.850342,449.882111 
	C700.777832,444.126068 700.310791,443.877228 694.624512,445.897247 
	C681.331055,450.619568 669.352966,457.786255 657.725769,465.618896 
	C645.712158,473.711761 634.668457,483.128326 622.488525,491.020477 
	C598.320923,506.680176 574.138611,522.341675 551.498840,540.210876 
	C549.358093,541.900513 546.671021,543.153137 545.468994,546.222168 
	C550.601379,550.986206 556.472046,554.491150 562.479797,558.986938 
z"/>
<!-- head -->
<path fill="#ffffff" opacity="1.000000" stroke="none" 
	d="
M563.240723,181.796722 
	C577.818481,201.108017 586.120911,222.298386 585.198792,246.378738 
	C584.767151,257.651062 582.120728,268.703003 579.533630,279.701111 
	C578.546143,283.899506 576.511902,284.909637 572.363525,283.861938 
	C546.513062,277.333191 520.200806,275.838165 493.695312,277.473938 
	C480.429413,278.292633 467.305878,280.399811 454.440826,283.852997 
	C451.448822,284.656097 449.288574,284.454407 448.310303,280.939667 
	C444.965790,268.923553 442.100342,256.771301 441.743774,244.290787 
	C441.126526,222.685760 448.885010,203.566864 460.720154,185.978134 
	C468.229767,174.817810 477.597382,165.451614 489.431793,158.717117 
	C509.147034,147.497971 527.700745,150.247803 545.277527,163.383530 
	C552.094788,168.478287 558.095581,174.508636 563.240723,181.796722 
z"/>
<!-- flipper top right -->
<path fill="#ffffff" opacity="1.000000" stroke="none" 
	d="
M692.987915,296.681519 
	C717.502136,291.696045 739.980591,297.052979 761.319519,307.967133 
	C799.356812,327.421967 825.894958,356.987946 838.673401,398.159882 
	C840.931396,405.434967 842.627380,412.924927 842.322876,420.666077 
	C842.064636,427.230927 839.854858,428.624390 834.392578,425.092712 
	C820.502686,416.112000 805.781738,408.852875 790.548950,402.458435 
	C770.785706,394.162231 750.222717,390.277374 728.884949,390.418335 
	C724.772034,390.445526 722.223999,389.262878 719.929260,385.756561 
	C702.670410,359.384735 681.237488,337.106659 654.433533,320.274109 
	C650.215637,317.625305 652.400696,315.907440 654.830322,314.027466 
	C666.063171,305.335938 678.567932,299.397552 692.987915,296.681519 
z"/>
<!-- flipper top left -->
<path fill="#ffffff" opacity="1.000000" stroke="none" 
	d="
M340.003113,345.004944 
	C327.003937,357.565826 315.808319,371.160004 306.141815,386.005829 
	C304.432800,388.630585 302.730316,390.511627 299.064392,390.407562 
	C265.117828,389.443756 234.255905,399.827301 205.118225,416.354919 
	C199.098602,419.769409 193.129105,423.272247 187.042679,426.788605 
	C183.734085,422.559570 184.307678,418.074738 184.851929,413.943970 
	C187.998444,390.062317 198.020325,369.081055 212.885025,350.385468 
	C231.102280,327.473389 253.643982,310.320404 281.583801,300.923859 
	C313.246857,290.275177 343.096588,293.164185 370.301453,313.772461 
	C371.358826,314.573425 372.363403,315.452332 373.327484,316.363770 
	C373.660095,316.678253 373.794464,317.202484 374.330536,318.223572 
	C362.362640,326.249115 350.778229,334.841217 340.003113,345.004944 
z"/>
<!-- flipper bottom left -->
<path fill="#ffffff" opacity="1.000000" stroke="none" 
	d="
M370.045197,812.343506 
	C364.472961,810.146423 360.756683,813.047302 357.033508,815.903809 
	C350.473816,820.936462 343.119080,823.877625 334.801086,823.295227 
	C326.544678,822.716980 319.226349,819.591003 314.112976,812.830078 
	C311.359283,809.189087 308.907135,807.809143 304.669464,810.609863 
	C288.514526,821.286987 277.928223,811.546692 275.163483,797.299194 
	C273.192749,787.143677 272.916046,777.081726 274.968018,767.145691 
	C281.233246,736.808533 297.051178,712.569031 322.575226,694.800232 
	C325.088989,693.050293 327.225311,691.817444 329.795044,694.976501 
	C349.917023,719.713013 375.503418,737.456116 403.578339,751.849548 
	C408.060089,754.147278 408.302887,756.021240 405.960480,760.080200 
	C398.960785,772.209167 393.248077,784.940613 389.198608,798.396912 
	C388.050476,802.212036 386.296539,805.800720 383.682861,808.946472 
	C380.044128,813.325989 375.360474,813.135925 370.045197,812.343506 
z"/>
<!-- flipper bottom right -->
<path fill="#ffffff" opacity="1.000000" stroke="none" 
	d="
M751.282593,797.883301 
	C749.462280,804.397888 747.815002,810.385681 741.269470,813.596619 
	C734.421570,816.955872 728.489929,814.833740 723.014587,811.063049 
	C718.328613,807.835938 715.398682,809.199707 712.079407,813.002625 
	C702.745911,823.696411 689.605286,826.189636 676.851501,819.906250 
	C674.472778,818.734253 672.046631,817.461487 670.046265,815.760376 
	C666.127625,812.427795 662.203796,811.171936 656.852844,812.285034 
	C648.631287,813.995361 644.028137,811.130188 640.835632,803.310303 
	C637.445557,795.006226 634.267334,786.609863 631.226562,778.170959 
	C628.721436,771.218567 624.776489,765.042725 621.161316,758.697754 
	C619.220703,755.291931 619.736572,753.491455 623.304749,751.723267 
	C647.393372,739.786865 668.513611,723.726807 687.517273,704.817993 
	C690.571838,701.778625 693.434875,698.506287 696.065369,695.094116 
	C698.190613,692.337524 700.278748,692.301697 702.882629,694.108398 
	C722.832458,707.950806 737.889404,725.738037 746.261658,748.711975 
	C751.297607,762.531067 754.753357,776.682739 752.375916,791.607056 
	C752.063660,793.566711 751.680481,795.515137 751.282593,797.883301 
z"/>
<!-- tail -->
<path fill="#ffffff" opacity="1.000000" stroke="none" 
	d="
M543.258545,783.008545 
	C541.716248,792.796997 539.811707,802.008972 534.568604,810.198303 
	C532.035583,814.154663 529.233093,817.796509 525.599304,820.802124 
	C515.306824,829.315857 503.184875,826.385315 494.537750,813.252502 
	C486.689545,801.333130 484.128204,793.086304 483.485474,777.201599 
	C503.272949,779.267029 523.027466,779.440552 542.645996,776.949524 
	C543.779541,778.942078 543.195496,780.799683 543.258545,783.008545 
z"/>
<!-- land 1 -->
<path fill="#a9d9b7" opacity="1.000000" stroke="none" 
	d="
M499.302368,416.086487 
	C495.174133,413.496277 492.584076,410.023071 491.019562,405.913940 
	C489.059387,400.765656 487.076935,395.694733 483.696564,391.244171 
	C482.406128,389.545227 481.822845,387.491577 484.854126,386.618652 
	C487.236664,385.932587 487.179352,384.025757 486.064819,382.724762 
	C483.053070,379.208984 481.995331,374.741730 479.753387,370.870483 
	C477.740967,367.395538 475.276154,365.723480 471.195892,367.755707 
	C467.143982,369.773865 462.667267,370.627777 458.268311,371.366882 
	C452.723175,372.298553 454.483917,376.347107 454.410980,379.503967 
	C454.334961,382.796295 455.072174,386.017334 459.141937,386.502380 
	C461.948029,386.836823 464.408783,387.274017 465.280426,391.247803 
	C461.684235,391.884003 457.685120,390.863525 454.707733,393.571564 
	C449.826965,398.010773 457.416382,399.721008 456.771637,403.713196 
	C451.109833,402.690155 448.419586,398.767609 446.443390,394.107880 
	C443.003906,385.997833 441.788849,385.636566 434.654846,390.697510 
	C433.436279,391.561981 432.206451,392.682068 430.825348,392.996124 
	C426.252502,394.036133 424.627380,396.076660 426.936890,400.699921 
	C428.070190,402.968567 426.955353,405.491882 424.987579,406.930664 
	C422.868866,408.479797 421.893860,405.917084 420.489929,404.983734 
	C419.820557,404.538757 419.129181,404.126831 418.338776,403.631622 
	C413.907013,406.904358 411.629333,412.093536 406.633362,414.866455 
	C408.638184,418.572632 412.146362,420.022247 414.989807,422.133789 
	C417.960754,424.340118 420.938599,426.370117 422.001862,430.233337 
	C422.784576,433.077179 425.377716,433.955658 427.800293,434.303345 
	C430.520142,434.693726 431.151978,432.052704 432.158264,430.200348 
	C434.289459,426.277344 435.173584,422.347107 433.864746,417.760315 
	C433.110443,415.116852 432.619080,411.390167 436.427643,410.056274 
	C439.944550,408.824524 441.846130,411.181458 443.530640,413.971588 
	C445.928162,417.942841 449.671326,418.490662 453.945618,417.615021 
	C462.234161,415.917023 463.973633,417.072937 465.353210,425.267059 
	C466.016693,429.207611 469.102142,431.069580 471.811554,433.131836 
	C476.845215,436.963165 482.207397,440.378540 486.117737,445.497009 
	C489.059143,449.347260 492.435120,453.564056 490.209534,458.462372 
	C487.910248,463.522980 482.539551,463.641785 477.584564,463.364716 
	C474.650970,463.200684 471.633728,463.930328 468.824066,462.768707 
	C467.907349,460.414215 470.941040,460.307068 470.934448,457.800507 
	C467.771149,454.692352 463.998413,451.740570 458.986542,450.592468 
	C456.936981,452.996582 455.631470,455.450592 454.668640,458.003723 
	C454.885620,458.439636 454.959869,458.808411 455.184601,459.005829 
	C457.193909,460.770935 461.546661,460.379883 461.289612,463.957794 
	C461.070496,467.008209 457.126282,466.669678 455.002899,468.108307 
	C450.544159,471.129120 446.455322,470.231171 442.164398,467.264648 
	C429.005066,458.166931 416.448639,448.269928 403.714630,438.612152 
	C390.431366,428.537720 376.716614,419.148438 362.202209,410.933960 
	C360.254364,409.831604 357.434784,408.814941 359.879791,405.775604 
	C369.353027,393.999542 379.155396,382.541809 391.054321,373.966888 
	C392.912964,374.000916 393.126434,374.807892 393.367188,375.625549 
	C393.543701,376.224976 393.794861,376.802399 394.223083,377.956512 
	C395.117279,376.557190 395.957428,375.698395 396.270477,374.677856 
	C398.175232,368.468933 402.765320,364.843567 408.141144,361.849640 
	C417.911743,356.408203 427.984222,351.678284 438.725555,348.465820 
	C439.977234,348.091492 441.212799,347.395172 443.142242,348.608673 
	C441.452179,353.074646 439.225952,356.896637 434.040527,358.313507 
	C427.524963,360.093842 421.249237,362.459778 415.019348,366.026520 
	C418.090118,367.820709 420.603271,364.492340 423.340118,366.486572 
	C422.092896,369.652466 419.173370,371.273346 417.105804,373.898224 
	C418.539398,375.256622 419.931152,376.575348 422.051575,378.584534 
	C421.414642,374.836426 422.050049,372.067871 424.017700,369.898651 
	C426.107056,367.595276 429.168671,366.899078 431.989685,365.962433 
	C434.365662,365.173492 435.878296,366.351868 436.244659,368.782440 
	C436.580475,371.010040 436.500946,373.255859 435.408264,376.289551 
	C438.077759,373.552979 437.512207,370.839081 437.918457,368.529541 
	C438.391449,365.840607 441.428101,365.663391 442.250763,362.910675 
	C439.891235,362.985016 437.116089,366.011658 435.511841,361.804260 
	C442.897705,358.134644 447.563507,351.551117 453.153900,345.981873 
	C454.821808,344.320282 456.779602,343.834137 458.903198,343.327484 
	C465.797424,341.682526 472.563202,339.289673 481.314941,339.739960 
	C473.658020,350.220734 464.874359,357.494232 454.256348,362.783600 
	C461.080078,360.400574 467.746887,358.291046 473.041199,352.698792 
	C478.768890,346.648865 486.055267,342.371033 493.791779,339.069489 
	C496.276611,338.009094 498.849335,337.566650 501.572845,337.612854 
	C507.569122,337.714539 513.568298,337.628052 519.565857,337.673309 
	C531.832886,337.765839 542.004883,347.810608 542.325439,360.176270 
	C542.420410,363.839203 542.362915,367.506775 542.337219,371.171967 
	C542.291199,377.726837 538.654968,381.591125 532.508667,383.891174 
	C521.399231,388.048492 514.333923,396.664581 509.370514,407.127686 
	C508.598450,408.755219 508.508942,410.697968 507.799896,412.365723 
	C506.263855,415.978729 503.932800,418.235260 499.302368,416.086487 
z"/>
<!-- land 2 -->
<path fill="#a9d9b7" opacity="1.000000" stroke="none" 
	d="
M613.190369,390.359283 
	C613.828064,389.552551 614.218994,389.004059 614.702393,388.555054 
	C620.580933,383.094452 620.628296,383.040558 614.028015,378.030457 
	C611.519592,376.126404 608.757202,374.557281 606.112915,372.831909 
	C604.861023,372.015106 603.489563,371.328949 602.390137,370.341156 
	C599.539062,367.779449 596.908264,364.760742 599.819519,360.925964 
	C602.463684,357.443115 606.126282,357.854553 609.680786,359.912567 
	C619.050903,365.337830 628.279297,371.060791 636.207642,378.441010 
	C644.958435,386.586792 654.403931,394.035461 662.080322,403.304932 
	C663.230286,404.693542 664.694397,405.875793 665.231018,408.530518 
	C652.804138,415.537018 640.409180,423.028839 628.090332,432.333710 
	C627.910156,427.244354 624.892761,423.126862 629.823914,418.965179 
	C623.749695,420.629150 620.368652,417.000183 616.617615,414.243011 
	C615.470215,413.399658 614.304199,413.476135 612.872620,413.797119 
	C607.145691,415.081024 603.352844,412.585815 601.377014,406.196777 
	C606.889221,406.484589 607.716431,401.992920 609.420227,398.343872 
	C610.614319,395.786316 611.798157,393.223969 613.190369,390.359283 
M636.289856,410.586212 
	C637.348145,410.308380 638.464355,411.712982 639.492371,410.518707 
	C639.035034,403.483307 632.476746,397.604370 627.648010,400.526978 
	C632.430481,403.787079 631.668884,408.419189 630.222290,413.271912 
	C632.431702,412.189178 634.042542,411.399811 636.289856,410.586212 
z"/>
<!-- land 3 -->
<path fill="#11a83e" opacity="1.000000" stroke="none" 
	d="
M588.510010,443.579773 
	C584.236267,445.310974 582.283752,443.902435 583.130920,439.709442 
	C583.673401,437.024597 583.496399,434.437195 583.402466,431.787048 
	C583.360291,430.597687 583.720093,429.436584 585.072693,429.026703 
	C586.512756,428.590302 587.302307,429.528076 587.794250,430.614075 
	C588.694885,432.601868 589.622803,434.447266 592.155518,432.656799 
	C594.183838,431.222839 594.656738,429.451752 593.443298,427.034485 
	C592.520142,425.195526 590.413330,423.241638 592.638489,420.678436 
	C600.593994,425.430267 598.136047,433.527924 598.797180,442.091370 
	C604.471741,436.330292 609.438110,438.088470 614.841736,440.483978 
	C611.556335,445.036133 607.278748,447.761292 602.731689,450.128479 
	C601.138611,450.957794 599.819275,450.336456 598.880981,448.906219 
	C597.786621,447.238098 596.659119,445.583282 595.692444,443.841400 
	C593.598755,440.068420 591.368652,439.440674 588.510010,443.579773 
z"/>
<!-- land 4 -->
<path fill="#a9d9b7" opacity="1.000000" stroke="none" 
	d="
M409.149353,531.059204 
	C409.605133,536.570496 409.372498,541.505737 407.334290,546.242737 
	C405.990692,549.365417 406.778839,551.071838 410.511627,550.698975 
	C412.383759,550.511902 414.551331,550.495667 415.002960,552.782898 
	C415.575592,555.683105 417.252655,556.398438 419.874115,556.695679 
	C421.544769,556.885193 423.660034,557.229675 424.158813,559.466675 
	C424.480469,560.909180 423.811798,562.180359 422.612091,562.897217 
	C420.700897,564.039185 418.573242,563.777527 416.994781,562.421631 
	C412.586700,558.635071 407.868225,555.395081 402.010223,553.131592 
	C400.861420,553.267273 400.075684,554.690369 398.922821,555.591064 
	C397.898346,556.391541 396.910126,557.552734 395.428131,556.519592 
	C393.978088,555.508728 393.111664,554.032837 393.141235,552.298828 
	C393.168091,550.725342 394.511658,550.081604 395.859528,549.809326 
	C398.172485,549.342163 400.845856,549.071472 401.741943,546.647522 
	C403.048462,543.113464 403.881165,539.383484 404.647797,535.681458 
	C404.933777,534.300537 403.618622,533.381287 402.572968,532.489929 
	C401.189911,531.310913 399.637848,530.152710 398.712036,528.645508 
	C394.598511,521.948853 388.233917,521.265503 381.617554,522.658997 
	C375.240143,524.002136 370.700500,528.155273 368.542694,534.496887 
	C364.062347,547.664124 364.782501,548.870728 377.956421,552.631958 
	C381.849274,553.743286 386.195892,553.529846 390.007385,556.344177 
	C388.123322,558.053955 386.264648,559.435486 385.239532,562.074280 
	C387.796265,563.171875 390.519775,564.398193 390.785645,568.182007 
	C390.912842,569.992249 393.106049,569.607788 394.574799,569.208618 
	C396.863434,568.586548 399.197174,568.392944 401.510162,568.744202 
	C406.957336,569.571472 408.102173,571.737488 406.116028,576.836426 
	C405.582367,578.206482 405.423065,579.720764 405.072937,581.164185 
	C403.630005,587.112549 399.172119,591.197510 393.175476,591.244629 
	C390.298370,591.267212 390.508301,594.044434 388.512939,594.935974 
	C383.057373,597.373230 377.992981,600.673401 372.584778,603.232483 
	C363.743988,607.415771 354.753632,611.282776 345.209869,615.559509 
	C328.462891,580.901001 319.521027,545.409546 324.222626,507.221252 
	C329.725433,510.386963 332.597107,533.035889 328.849091,545.767700 
	C331.428558,544.518311 332.497131,542.868347 332.713776,540.420776 
	C333.517242,531.343750 332.713348,522.183716 329.750885,513.817139 
	C326.061066,503.396301 327.327301,493.182800 328.066406,482.813324 
	C328.442993,477.529541 329.720886,472.369324 331.073639,467.213196 
	C332.109711,463.264160 333.744354,462.933258 337.089691,464.410278 
	C349.044983,469.688721 359.829529,476.862671 370.491699,484.315582 
	C379.262634,490.446472 385.964661,499.052704 395.069672,504.686768 
	C401.203033,508.482025 406.561432,512.656860 408.165009,520.168762 
	C408.898407,523.604309 409.248108,527.068604 409.149353,531.059204 
M351.469727,553.934265 
	C348.801208,550.684509 347.335663,546.779541 345.398102,543.118591 
	C343.465912,539.467773 347.309143,535.401978 344.229584,531.133484 
	C342.626617,535.796143 344.754395,539.629272 343.807495,543.343201 
	C342.757782,547.460205 344.301208,550.924011 346.587769,554.052856 
	C349.157196,557.568665 352.599884,560.222961 356.254120,562.582336 
	C365.017700,568.240417 374.510834,572.876465 381.680878,580.774475 
	C382.296906,581.453064 383.082275,582.258240 384.247406,581.703369 
	C382.696136,574.874451 380.189362,571.353088 374.156158,569.684387 
	C364.918457,567.129395 358.178986,561.247864 351.469727,553.934265 
z"/>

<!-- land 5 -->
<path fill="#a9d9b7" opacity="1.000000" stroke="none" 
	d="
M435.885864,565.623169 
	C429.124023,570.518433 423.148895,575.888428 416.010345,579.567688 
	C414.160645,580.521057 411.699341,583.093384 410.253784,579.575317 
	C409.097168,576.760315 410.433594,573.030640 413.334290,572.739807 
	C420.276123,572.043884 424.648163,567.914734 429.318726,563.572144 
	C431.330719,561.701416 434.495850,560.050903 436.892487,563.705627 
	C437.078827,563.989746 436.439392,564.815430 435.885864,565.623169 
z"/>
<!-- land 6 -->
<path fill="#a9d9b7" opacity="1.000000" stroke="none" 
	d="
M532.203491,633.773193 
	C527.195496,643.272583 523.082520,652.726013 519.446838,662.405457 
	C516.895630,669.197815 511.933502,673.579041 504.925476,675.388184 
	C501.604462,676.245544 500.330414,678.791077 499.664001,681.464478 
	C498.258942,687.101257 494.945435,690.516479 489.716736,692.987915 
	C484.810883,695.306702 479.938019,697.955933 475.516327,701.618896 
	C477.743164,706.767517 480.873962,709.846985 486.815216,709.743958 
	C496.312927,709.579163 505.507446,712.348633 514.954590,713.095825 
	C528.454834,714.163513 541.765259,713.277710 555.103333,711.326660 
	C569.745789,709.184814 582.723083,702.938232 595.249207,695.538147 
	C598.324890,693.721069 601.350708,693.170959 604.809448,694.144165 
	C604.892212,696.748657 602.610596,696.875366 601.203857,697.666687 
	C572.867371,713.607849 542.384766,719.855225 510.008179,718.496216 
	C492.833405,717.775269 475.990814,715.634277 459.466064,710.921753 
	C456.803314,710.162415 454.794250,709.153748 455.433136,705.847290 
	C455.517334,705.411499 455.285370,704.838013 455.037537,704.425964 
	C450.095306,696.210327 451.510651,687.158142 451.661835,678.304871 
	C451.852570,667.135010 448.869568,657.416992 440.360870,649.575928 
	C435.725739,645.304565 431.676361,640.394836 428.796112,634.630066 
	C427.000214,631.035583 427.446930,628.447083 430.963470,626.172180 
	C446.205780,616.311462 461.389923,606.360168 476.539856,596.357971 
	C479.129547,594.648254 481.557281,594.220154 484.496063,595.386169 
	C487.578644,596.609314 490.814484,597.451538 493.996124,598.418091 
	C496.493195,599.176880 498.859436,600.425781 499.740082,602.869629 
	C503.566040,613.486267 512.430847,617.204285 522.216736,619.812927 
	C523.819336,620.240112 525.414368,620.747620 526.945801,621.380432 
	C533.563293,624.115112 534.542419,626.340454 532.203491,633.773193 
z"/>
<!-- land 7 -->
<path fill="#a9d9b7" opacity="1.000000" stroke="none" 
	d="
M647.912109,658.896484 
	C649.782104,660.117126 650.213562,661.410522 648.672363,662.711548 
	C638.919922,670.944458 629.759583,679.900146 619.126404,687.058594 
	C617.761658,687.977356 616.236206,688.722473 614.163757,688.130432 
	C613.177490,684.841309 615.042603,681.507202 615.405212,678.410767 
	C616.497559,669.084717 613.735901,658.325684 623.250916,651.165283 
	C625.698059,649.323792 627.590454,648.399597 630.330261,649.814575 
	C636.085999,652.786987 641.849854,655.743652 647.912109,658.896484 
z"/>
<!-- land 8 -->
<path fill="#a9d9b7" opacity="1.000000" stroke="none" 
	d="
M622.369385,589.985229 
	C617.675354,589.223755 615.684387,585.930359 613.751770,582.149597 
	C611.374573,584.469971 609.258972,583.672485 606.953430,582.270630 
	C595.120605,575.075806 584.092224,566.750305 573.055359,558.429688 
	C569.852722,556.015259 569.151611,552.974854 570.073364,549.154724 
	C571.356628,543.836426 573.381226,538.688904 573.779419,533.156555 
	C573.920959,531.189148 575.264099,529.940063 576.775513,528.776306 
	C595.803833,514.125427 615.683838,500.739105 636.389404,488.580200 
	C637.874451,487.708130 639.503601,486.153778 641.305786,487.962830 
	C642.842834,489.505829 642.363586,490.939117 641.339050,492.839294 
	C639.428467,496.382874 643.013733,498.556396 644.457214,501.042999 
	C647.278687,505.903717 655.201660,507.006165 659.219238,503.224030 
	C663.113159,499.558319 666.495056,496.315796 672.619873,499.347961 
	C675.852173,500.948181 678.561829,497.235748 681.768555,495.964600 
	C680.873108,492.265686 678.664368,489.653931 676.382751,487.430481 
	C673.993225,485.101929 671.195801,485.066101 668.691833,488.139069 
	C663.744385,494.210663 661.817688,493.855927 659.170959,486.756989 
	C656.638733,479.965118 656.638367,479.963928 649.682678,481.906342 
	C648.407043,482.262543 647.138611,482.754028 645.370483,481.787506 
	C648.574707,477.825287 653.012756,475.658478 656.839172,472.769012 
	C666.035889,465.824310 675.848267,459.992065 686.597595,455.702850 
	C689.861938,454.400269 691.268799,454.854919 692.470703,458.232910 
	C702.365173,486.042389 706.083984,514.508789 703.696350,544.031860 
	C701.811035,567.343933 695.260986,589.174744 686.221008,610.473816 
	C684.207520,615.217712 680.255737,616.804382 675.387146,615.334595 
	C661.923096,611.270081 649.571045,604.677551 636.946411,598.698975 
	C635.778137,598.145691 634.473633,597.801880 634.005676,596.272644 
	C632.209106,590.401489 630.595215,589.361267 624.749023,590.076721 
	C624.095398,590.156799 623.421692,590.072876 622.369385,589.985229 
M688.470093,545.155396 
	C689.372375,547.353760 689.923279,546.278503 690.340698,544.924805 
	C691.969788,539.641541 686.529297,525.025208 681.775574,521.714172 
	C683.968018,529.272522 686.178101,536.891602 688.470093,545.155396 
z"/>
</svg>